ISO-10303-21;
HEADER;
/* Generated by software containing ST-Developer
 * from STEP Tools, Inc. (www.steptools.com) 
 */

FILE_DESCRIPTION(
/* description */ (''),
/* implementation_level */ '2;1');

FILE_NAME(
/* name */ 'top case.step',
/* time_stamp */ '2026-07-08T16:09:57+05:30',
/* author */ (''),
/* organization */ (''),
/* preprocessor_version */ 'ST-DEVELOPER v20.1',
/* originating_system */ 'Autodesk Translation Framework v15.8.0.0',
/* authorisation */ '');

FILE_SCHEMA (('AUTOMOTIVE_DESIGN { 1 0 10303 214 3 1 1 }'));
ENDSEC;

DATA;
#10=MECHANICAL_DESIGN_GEOMETRIC_PRESENTATION_REPRESENTATION('',(#13),#601);
#11=SHAPE_REPRESENTATION_RELATIONSHIP('SRR','None',#608,#12);
#12=ADVANCED_BREP_SHAPE_REPRESENTATION('',(#14),#600);
#13=STYLED_ITEM('',(#617),#14);
#14=MANIFOLD_SOLID_BREP('Body1',#361);
#15=FACE_BOUND('',#54,.T.);
#16=FACE_BOUND('',#71,.T.);
#17=FACE_BOUND('',#73,.T.);
#18=PLANE('',#378);
#19=PLANE('',#382);
#20=PLANE('',#387);
#21=PLANE('',#390);
#22=PLANE('',#391);
#23=PLANE('',#392);
#24=PLANE('',#393);
#25=PLANE('',#394);
#26=PLANE('',#395);
#27=PLANE('',#396);
#28=PLANE('',#397);
#29=PLANE('',#398);
#30=PLANE('',#399);
#31=PLANE('',#400);
#32=PLANE('',#401);
#33=FACE_OUTER_BOUND('',#52,.T.);
#34=FACE_OUTER_BOUND('',#53,.T.);
#35=FACE_OUTER_BOUND('',#55,.T.);
#36=FACE_OUTER_BOUND('',#56,.T.);
#37=FACE_OUTER_BOUND('',#57,.T.);
#38=FACE_OUTER_BOUND('',#58,.T.);
#39=FACE_OUTER_BOUND('',#59,.T.);
#40=FACE_OUTER_BOUND('',#60,.T.);
#41=FACE_OUTER_BOUND('',#61,.T.);
#42=FACE_OUTER_BOUND('',#62,.T.);
#43=FACE_OUTER_BOUND('',#63,.T.);
#44=FACE_OUTER_BOUND('',#64,.T.);
#45=FACE_OUTER_BOUND('',#65,.T.);
#46=FACE_OUTER_BOUND('',#66,.T.);
#47=FACE_OUTER_BOUND('',#67,.T.);
#48=FACE_OUTER_BOUND('',#68,.T.);
#49=FACE_OUTER_BOUND('',#69,.T.);
#50=FACE_OUTER_BOUND('',#70,.T.);
#51=FACE_OUTER_BOUND('',#72,.T.);
#52=EDGE_LOOP('',(#242,#243,#244,#245));
#53=EDGE_LOOP('',(#246,#247,#248,#249,#250,#251,#252,#253));
#54=EDGE_LOOP('',(#254,#255,#256,#257));
#55=EDGE_LOOP('',(#258,#259,#260,#261));
#56=EDGE_LOOP('',(#262,#263,#264,#265));
#57=EDGE_LOOP('',(#266,#267,#268,#269));
#58=EDGE_LOOP('',(#270,#271,#272,#273));
#59=EDGE_LOOP('',(#274,#275,#276,#277));
#60=EDGE_LOOP('',(#278,#279,#280,#281));
#61=EDGE_LOOP('',(#282,#283,#284,#285));
#62=EDGE_LOOP('',(#286,#287,#288,#289));
#63=EDGE_LOOP('',(#290,#291,#292,#293));
#64=EDGE_LOOP('',(#294,#295,#296,#297));
#65=EDGE_LOOP('',(#298,#299,#300,#301));
#66=EDGE_LOOP('',(#302,#303,#304,#305));
#67=EDGE_LOOP('',(#306,#307,#308,#309));
#68=EDGE_LOOP('',(#310,#311,#312,#313));
#69=EDGE_LOOP('',(#314,#315,#316,#317));
#70=EDGE_LOOP('',(#318,#319,#320,#321,#322,#323,#324,#325));
#71=EDGE_LOOP('',(#326,#327,#328,#329));
#72=EDGE_LOOP('',(#330,#331,#332,#333));
#73=EDGE_LOOP('',(#334,#335,#336,#337));
#74=LINE('',#504,#114);
#75=LINE('',#507,#115);
#76=LINE('',#510,#116);
#77=LINE('',#514,#117);
#78=LINE('',#518,#118);
#79=LINE('',#521,#119);
#80=LINE('',#524,#120);
#81=LINE('',#526,#121);
#82=LINE('',#528,#122);
#83=LINE('',#529,#123);
#84=LINE('',#532,#124);
#85=LINE('',#533,#125);
#86=LINE('',#537,#126);
#87=LINE('',#540,#127);
#88=LINE('',#543,#128);
#89=LINE('',#546,#129);
#90=LINE('',#547,#130);
#91=LINE('',#551,#131);
#92=LINE('',#555,#132);
#93=LINE('',#556,#133);
#94=LINE('',#557,#134);
#95=LINE('',#560,#135);
#96=LINE('',#561,#136);
#97=LINE('',#564,#137);
#98=LINE('',#565,#138);
#99=LINE('',#567,#139);
#100=LINE('',#569,#140);
#101=LINE('',#571,#141);
#102=LINE('',#575,#142);
#103=LINE('',#577,#143);
#104=LINE('',#579,#144);
#105=LINE('',#580,#145);
#106=LINE('',#583,#146);
#107=LINE('',#585,#147);
#108=LINE('',#586,#148);
#109=LINE('',#589,#149);
#110=LINE('',#591,#150);
#111=LINE('',#592,#151);
#112=LINE('',#594,#152);
#113=LINE('',#595,#153);
#114=VECTOR('',#408,10.);
#115=VECTOR('',#411,10.);
#116=VECTOR('',#414,10.);
#117=VECTOR('',#417,10.);
#118=VECTOR('',#420,10.);
#119=VECTOR('',#423,10.);
#120=VECTOR('',#424,10.);
#121=VECTOR('',#425,10.);
#122=VECTOR('',#426,10.);
#123=VECTOR('',#427,10.);
#124=VECTOR('',#430,10.);
#125=VECTOR('',#431,10.);
#126=VECTOR('',#436,10.);
#127=VECTOR('',#439,10.);
#128=VECTOR('',#442,10.);
#129=VECTOR('',#445,10.);
#130=VECTOR('',#446,10.);
#131=VECTOR('',#451,10.);
#132=VECTOR('',#454,10.);
#133=VECTOR('',#455,10.);
#134=VECTOR('',#456,10.);
#135=VECTOR('',#459,10.);
#136=VECTOR('',#460,10.);
#137=VECTOR('',#463,10.);
#138=VECTOR('',#464,10.);
#139=VECTOR('',#467,10.);
#140=VECTOR('',#470,10.);
#141=VECTOR('',#473,10.);
#142=VECTOR('',#476,10.);
#143=VECTOR('',#477,10.);
#144=VECTOR('',#478,10.);
#145=VECTOR('',#479,10.);
#146=VECTOR('',#482,10.);
#147=VECTOR('',#483,10.);
#148=VECTOR('',#484,10.);
#149=VECTOR('',#487,10.);
#150=VECTOR('',#488,10.);
#151=VECTOR('',#489,10.);
#152=VECTOR('',#492,10.);
#153=VECTOR('',#493,10.);
#154=CIRCLE('',#376,2.);
#155=CIRCLE('',#377,2.);
#156=CIRCLE('',#379,2.);
#157=CIRCLE('',#380,2.);
#158=CIRCLE('',#381,2.);
#159=CIRCLE('',#384,2.);
#160=CIRCLE('',#386,2.);
#161=CIRCLE('',#389,2.);
#162=VERTEX_POINT('',#500);
#163=VERTEX_POINT('',#501);
#164=VERTEX_POINT('',#503);
#165=VERTEX_POINT('',#505);
#166=VERTEX_POINT('',#509);
#167=VERTEX_POINT('',#511);
#168=VERTEX_POINT('',#513);
#169=VERTEX_POINT('',#515);
#170=VERTEX_POINT('',#517);
#171=VERTEX_POINT('',#519);
#172=VERTEX_POINT('',#522);
#173=VERTEX_POINT('',#523);
#174=VERTEX_POINT('',#525);
#175=VERTEX_POINT('',#527);
#176=VERTEX_POINT('',#531);
#177=VERTEX_POINT('',#535);
#178=VERTEX_POINT('',#539);
#179=VERTEX_POINT('',#541);
#180=VERTEX_POINT('',#545);
#181=VERTEX_POINT('',#549);
#182=VERTEX_POINT('',#553);
#183=VERTEX_POINT('',#554);
#184=VERTEX_POINT('',#559);
#185=VERTEX_POINT('',#563);
#186=VERTEX_POINT('',#573);
#187=VERTEX_POINT('',#574);
#188=VERTEX_POINT('',#576);
#189=VERTEX_POINT('',#578);
#190=VERTEX_POINT('',#582);
#191=VERTEX_POINT('',#584);
#192=VERTEX_POINT('',#588);
#193=VERTEX_POINT('',#590);
#194=EDGE_CURVE('',#162,#163,#154,.T.);
#195=EDGE_CURVE('',#163,#164,#74,.T.);
#196=EDGE_CURVE('',#164,#165,#155,.T.);
#197=EDGE_CURVE('',#165,#162,#75,.T.);
#198=EDGE_CURVE('',#162,#166,#76,.T.);
#199=EDGE_CURVE('',#167,#166,#156,.T.);
#200=EDGE_CURVE('',#167,#168,#77,.T.);
#201=EDGE_CURVE('',#169,#168,#157,.T.);
#202=EDGE_CURVE('',#169,#170,#78,.T.);
#203=EDGE_CURVE('',#171,#170,#158,.T.);
#204=EDGE_CURVE('',#171,#163,#79,.T.);
#205=EDGE_CURVE('',#172,#173,#80,.T.);
#206=EDGE_CURVE('',#173,#174,#81,.T.);
#207=EDGE_CURVE('',#174,#175,#82,.T.);
#208=EDGE_CURVE('',#175,#172,#83,.T.);
#209=EDGE_CURVE('',#176,#165,#84,.T.);
#210=EDGE_CURVE('',#166,#176,#85,.T.);
#211=EDGE_CURVE('',#176,#177,#159,.T.);
#212=EDGE_CURVE('',#177,#167,#86,.T.);
#213=EDGE_CURVE('',#168,#178,#87,.T.);
#214=EDGE_CURVE('',#178,#179,#160,.T.);
#215=EDGE_CURVE('',#179,#169,#88,.T.);
#216=EDGE_CURVE('',#179,#180,#89,.T.);
#217=EDGE_CURVE('',#170,#180,#90,.T.);
#218=EDGE_CURVE('',#180,#181,#161,.T.);
#219=EDGE_CURVE('',#181,#171,#91,.T.);
#220=EDGE_CURVE('',#182,#183,#92,.T.);
#221=EDGE_CURVE('',#182,#172,#93,.T.);
#222=EDGE_CURVE('',#183,#175,#94,.T.);
#223=EDGE_CURVE('',#183,#184,#95,.T.);
#224=EDGE_CURVE('',#184,#174,#96,.T.);
#225=EDGE_CURVE('',#184,#185,#97,.T.);
#226=EDGE_CURVE('',#185,#173,#98,.T.);
#227=EDGE_CURVE('',#185,#182,#99,.T.);
#228=EDGE_CURVE('',#181,#164,#100,.T.);
#229=EDGE_CURVE('',#177,#178,#101,.T.);
#230=EDGE_CURVE('',#186,#187,#102,.T.);
#231=EDGE_CURVE('',#186,#188,#103,.T.);
#232=EDGE_CURVE('',#189,#188,#104,.T.);
#233=EDGE_CURVE('',#187,#189,#105,.T.);
#234=EDGE_CURVE('',#190,#186,#106,.T.);
#235=EDGE_CURVE('',#190,#191,#107,.T.);
#236=EDGE_CURVE('',#188,#191,#108,.T.);
#237=EDGE_CURVE('',#192,#190,#109,.T.);
#238=EDGE_CURVE('',#192,#193,#110,.T.);
#239=EDGE_CURVE('',#191,#193,#111,.T.);
#240=EDGE_CURVE('',#187,#192,#112,.T.);
#241=EDGE_CURVE('',#193,#189,#113,.T.);
#242=ORIENTED_EDGE('',*,*,#194,.T.);
#243=ORIENTED_EDGE('',*,*,#195,.T.);
#244=ORIENTED_EDGE('',*,*,#196,.T.);
#245=ORIENTED_EDGE('',*,*,#197,.T.);
#246=ORIENTED_EDGE('',*,*,#194,.F.);
#247=ORIENTED_EDGE('',*,*,#198,.T.);
#248=ORIENTED_EDGE('',*,*,#199,.F.);
#249=ORIENTED_EDGE('',*,*,#200,.T.);
#250=ORIENTED_EDGE('',*,*,#201,.F.);
#251=ORIENTED_EDGE('',*,*,#202,.T.);
#252=ORIENTED_EDGE('',*,*,#203,.F.);
#253=ORIENTED_EDGE('',*,*,#204,.T.);
#254=ORIENTED_EDGE('',*,*,#205,.T.);
#255=ORIENTED_EDGE('',*,*,#206,.T.);
#256=ORIENTED_EDGE('',*,*,#207,.T.);
#257=ORIENTED_EDGE('',*,*,#208,.T.);
#258=ORIENTED_EDGE('',*,*,#197,.F.);
#259=ORIENTED_EDGE('',*,*,#209,.F.);
#260=ORIENTED_EDGE('',*,*,#210,.F.);
#261=ORIENTED_EDGE('',*,*,#198,.F.);
#262=ORIENTED_EDGE('',*,*,#199,.T.);
#263=ORIENTED_EDGE('',*,*,#210,.T.);
#264=ORIENTED_EDGE('',*,*,#211,.T.);
#265=ORIENTED_EDGE('',*,*,#212,.T.);
#266=ORIENTED_EDGE('',*,*,#201,.T.);
#267=ORIENTED_EDGE('',*,*,#213,.T.);
#268=ORIENTED_EDGE('',*,*,#214,.T.);
#269=ORIENTED_EDGE('',*,*,#215,.T.);
#270=ORIENTED_EDGE('',*,*,#215,.F.);
#271=ORIENTED_EDGE('',*,*,#216,.T.);
#272=ORIENTED_EDGE('',*,*,#217,.F.);
#273=ORIENTED_EDGE('',*,*,#202,.F.);
#274=ORIENTED_EDGE('',*,*,#203,.T.);
#275=ORIENTED_EDGE('',*,*,#217,.T.);
#276=ORIENTED_EDGE('',*,*,#218,.T.);
#277=ORIENTED_EDGE('',*,*,#219,.T.);
#278=ORIENTED_EDGE('',*,*,#220,.F.);
#279=ORIENTED_EDGE('',*,*,#221,.T.);
#280=ORIENTED_EDGE('',*,*,#208,.F.);
#281=ORIENTED_EDGE('',*,*,#222,.F.);
#282=ORIENTED_EDGE('',*,*,#223,.F.);
#283=ORIENTED_EDGE('',*,*,#222,.T.);
#284=ORIENTED_EDGE('',*,*,#207,.F.);
#285=ORIENTED_EDGE('',*,*,#224,.F.);
#286=ORIENTED_EDGE('',*,*,#225,.F.);
#287=ORIENTED_EDGE('',*,*,#224,.T.);
#288=ORIENTED_EDGE('',*,*,#206,.F.);
#289=ORIENTED_EDGE('',*,*,#226,.F.);
#290=ORIENTED_EDGE('',*,*,#227,.F.);
#291=ORIENTED_EDGE('',*,*,#226,.T.);
#292=ORIENTED_EDGE('',*,*,#205,.F.);
#293=ORIENTED_EDGE('',*,*,#221,.F.);
#294=ORIENTED_EDGE('',*,*,#195,.F.);
#295=ORIENTED_EDGE('',*,*,#204,.F.);
#296=ORIENTED_EDGE('',*,*,#219,.F.);
#297=ORIENTED_EDGE('',*,*,#228,.T.);
#298=ORIENTED_EDGE('',*,*,#212,.F.);
#299=ORIENTED_EDGE('',*,*,#229,.T.);
#300=ORIENTED_EDGE('',*,*,#213,.F.);
#301=ORIENTED_EDGE('',*,*,#200,.F.);
#302=ORIENTED_EDGE('',*,*,#230,.F.);
#303=ORIENTED_EDGE('',*,*,#231,.T.);
#304=ORIENTED_EDGE('',*,*,#232,.F.);
#305=ORIENTED_EDGE('',*,*,#233,.F.);
#306=ORIENTED_EDGE('',*,*,#234,.F.);
#307=ORIENTED_EDGE('',*,*,#235,.T.);
#308=ORIENTED_EDGE('',*,*,#236,.F.);
#309=ORIENTED_EDGE('',*,*,#231,.F.);
#310=ORIENTED_EDGE('',*,*,#237,.F.);
#311=ORIENTED_EDGE('',*,*,#238,.T.);
#312=ORIENTED_EDGE('',*,*,#239,.F.);
#313=ORIENTED_EDGE('',*,*,#235,.F.);
#314=ORIENTED_EDGE('',*,*,#240,.F.);
#315=ORIENTED_EDGE('',*,*,#233,.T.);
#316=ORIENTED_EDGE('',*,*,#241,.F.);
#317=ORIENTED_EDGE('',*,*,#238,.F.);
#318=ORIENTED_EDGE('',*,*,#196,.F.);
#319=ORIENTED_EDGE('',*,*,#228,.F.);
#320=ORIENTED_EDGE('',*,*,#218,.F.);
#321=ORIENTED_EDGE('',*,*,#216,.F.);
#322=ORIENTED_EDGE('',*,*,#214,.F.);
#323=ORIENTED_EDGE('',*,*,#229,.F.);
#324=ORIENTED_EDGE('',*,*,#211,.F.);
#325=ORIENTED_EDGE('',*,*,#209,.T.);
#326=ORIENTED_EDGE('',*,*,#230,.T.);
#327=ORIENTED_EDGE('',*,*,#240,.T.);
#328=ORIENTED_EDGE('',*,*,#237,.T.);
#329=ORIENTED_EDGE('',*,*,#234,.T.);
#330=ORIENTED_EDGE('',*,*,#220,.T.);
#331=ORIENTED_EDGE('',*,*,#223,.T.);
#332=ORIENTED_EDGE('',*,*,#225,.T.);
#333=ORIENTED_EDGE('',*,*,#227,.T.);
#334=ORIENTED_EDGE('',*,*,#232,.T.);
#335=ORIENTED_EDGE('',*,*,#236,.T.);
#336=ORIENTED_EDGE('',*,*,#239,.T.);
#337=ORIENTED_EDGE('',*,*,#241,.T.);
#338=CYLINDRICAL_SURFACE('',#375,2.);
#339=CYLINDRICAL_SURFACE('',#383,2.);
#340=CYLINDRICAL_SURFACE('',#385,2.);
#341=CYLINDRICAL_SURFACE('',#388,2.);
#342=ADVANCED_FACE('',(#33),#338,.T.);
#343=ADVANCED_FACE('',(#34,#15),#18,.T.);
#344=ADVANCED_FACE('',(#35),#19,.T.);
#345=ADVANCED_FACE('',(#36),#339,.T.);
#346=ADVANCED_FACE('',(#37),#340,.T.);
#347=ADVANCED_FACE('',(#38),#20,.T.);
#348=ADVANCED_FACE('',(#39),#341,.T.);
#349=ADVANCED_FACE('',(#40),#21,.T.);
#350=ADVANCED_FACE('',(#41),#22,.T.);
#351=ADVANCED_FACE('',(#42),#23,.T.);
#352=ADVANCED_FACE('',(#43),#24,.T.);
#353=ADVANCED_FACE('',(#44),#25,.T.);
#354=ADVANCED_FACE('',(#45),#26,.T.);
#355=ADVANCED_FACE('',(#46),#27,.F.);
#356=ADVANCED_FACE('',(#47),#28,.F.);
#357=ADVANCED_FACE('',(#48),#29,.F.);
#358=ADVANCED_FACE('',(#49),#30,.F.);
#359=ADVANCED_FACE('',(#50,#16),#31,.T.);
#360=ADVANCED_FACE('',(#51,#17),#32,.F.);
#361=CLOSED_SHELL('',(#342,#343,#344,#345,#346,#347,#348,#349,#350,#351,
#352,#353,#354,#355,#356,#357,#358,#359,#360));
#362=DERIVED_UNIT_ELEMENT(#364,1.);
#363=DERIVED_UNIT_ELEMENT(#603,-3.);
#364=(
MASS_UNIT()
NAMED_UNIT(*)
SI_UNIT(.KILO.,.GRAM.)
);
#365=DERIVED_UNIT((#362,#363));
#366=MEASURE_REPRESENTATION_ITEM('density measure',
POSITIVE_RATIO_MEASURE(7850.),#365);
#367=PROPERTY_DEFINITION_REPRESENTATION(#372,#369);
#368=PROPERTY_DEFINITION_REPRESENTATION(#373,#370);
#369=REPRESENTATION('material name',(#371),#600);
#370=REPRESENTATION('density',(#366),#600);
#371=DESCRIPTIVE_REPRESENTATION_ITEM('Steel','Steel');
#372=PROPERTY_DEFINITION('material property','material name',#610);
#373=PROPERTY_DEFINITION('material property','density of part',#610);
#374=AXIS2_PLACEMENT_3D('',#498,#402,#403);
#375=AXIS2_PLACEMENT_3D('',#499,#404,#405);
#376=AXIS2_PLACEMENT_3D('',#502,#406,#407);
#377=AXIS2_PLACEMENT_3D('',#506,#409,#410);
#378=AXIS2_PLACEMENT_3D('',#508,#412,#413);
#379=AXIS2_PLACEMENT_3D('',#512,#415,#416);
#380=AXIS2_PLACEMENT_3D('',#516,#418,#419);
#381=AXIS2_PLACEMENT_3D('',#520,#421,#422);
#382=AXIS2_PLACEMENT_3D('',#530,#428,#429);
#383=AXIS2_PLACEMENT_3D('',#534,#432,#433);
#384=AXIS2_PLACEMENT_3D('',#536,#434,#435);
#385=AXIS2_PLACEMENT_3D('',#538,#437,#438);
#386=AXIS2_PLACEMENT_3D('',#542,#440,#441);
#387=AXIS2_PLACEMENT_3D('',#544,#443,#444);
#388=AXIS2_PLACEMENT_3D('',#548,#447,#448);
#389=AXIS2_PLACEMENT_3D('',#550,#449,#450);
#390=AXIS2_PLACEMENT_3D('',#552,#452,#453);
#391=AXIS2_PLACEMENT_3D('',#558,#457,#458);
#392=AXIS2_PLACEMENT_3D('',#562,#461,#462);
#393=AXIS2_PLACEMENT_3D('',#566,#465,#466);
#394=AXIS2_PLACEMENT_3D('',#568,#468,#469);
#395=AXIS2_PLACEMENT_3D('',#570,#471,#472);
#396=AXIS2_PLACEMENT_3D('',#572,#474,#475);
#397=AXIS2_PLACEMENT_3D('',#581,#480,#481);
#398=AXIS2_PLACEMENT_3D('',#587,#485,#486);
#399=AXIS2_PLACEMENT_3D('',#593,#490,#491);
#400=AXIS2_PLACEMENT_3D('',#596,#494,#495);
#401=AXIS2_PLACEMENT_3D('',#597,#496,#497);
#402=DIRECTION('axis',(0.,0.,1.));
#403=DIRECTION('refdir',(1.,0.,0.));
#404=DIRECTION('center_axis',(1.35393051783556E-16,0.,1.));
#405=DIRECTION('ref_axis',(-0.707106781186549,-0.707106781186546,0.));
#406=DIRECTION('center_axis',(0.,0.,-1.));
#407=DIRECTION('ref_axis',(-0.707106781186549,-0.707106781186546,0.));
#408=DIRECTION('',(-1.35393051783556E-16,0.,-1.));
#409=DIRECTION('center_axis',(1.22464679914735E-16,0.,1.));
#410=DIRECTION('ref_axis',(-0.707106781186549,-0.707106781186546,0.));
#411=DIRECTION('',(1.35393051783556E-16,0.,1.));
#412=DIRECTION('center_axis',(0.,0.,1.));
#413=DIRECTION('ref_axis',(1.,0.,0.));
#414=DIRECTION('',(1.,0.,0.));
#415=DIRECTION('center_axis',(0.,0.,-1.));
#416=DIRECTION('ref_axis',(0.707106781186551,-0.707106781186544,0.));
#417=DIRECTION('',(0.,1.,0.));
#418=DIRECTION('center_axis',(0.,0.,-1.));
#419=DIRECTION('ref_axis',(0.707106781186549,0.707106781186546,0.));
#420=DIRECTION('',(-1.,0.,0.));
#421=DIRECTION('center_axis',(0.,0.,-1.));
#422=DIRECTION('ref_axis',(-0.707106781186546,0.707106781186549,0.));
#423=DIRECTION('',(0.,-1.,0.));
#424=DIRECTION('',(0.,1.,0.));
#425=DIRECTION('',(1.,0.,0.));
#426=DIRECTION('',(0.,-1.,0.));
#427=DIRECTION('',(-1.,0.,0.));
#428=DIRECTION('center_axis',(0.,-1.,0.));
#429=DIRECTION('ref_axis',(0.,0.,-1.));
#430=DIRECTION('',(-1.,0.,1.35393051783556E-16));
#431=DIRECTION('',(-1.35393051783556E-16,0.,-1.));
#432=DIRECTION('center_axis',(1.35393051783556E-16,0.,1.));
#433=DIRECTION('ref_axis',(0.707106781186551,-0.707106781186544,0.));
#434=DIRECTION('center_axis',(1.22464679914735E-16,0.,1.));
#435=DIRECTION('ref_axis',(0.707106781186551,-0.707106781186544,0.));
#436=DIRECTION('',(1.35393051783556E-16,0.,1.));
#437=DIRECTION('center_axis',(1.35393051783556E-16,0.,1.));
#438=DIRECTION('ref_axis',(0.707106781186549,0.707106781186546,0.));
#439=DIRECTION('',(-1.35393051783556E-16,0.,-1.));
#440=DIRECTION('center_axis',(1.22464679914735E-16,0.,1.));
#441=DIRECTION('ref_axis',(0.707106781186549,0.707106781186546,0.));
#442=DIRECTION('',(1.35393051783556E-16,0.,1.));
#443=DIRECTION('center_axis',(0.,1.,0.));
#444=DIRECTION('ref_axis',(0.,0.,1.));
#445=DIRECTION('',(-1.,0.,1.22464679914735E-16));
#446=DIRECTION('',(-1.35393051783556E-16,0.,-1.));
#447=DIRECTION('center_axis',(1.35393051783556E-16,0.,1.));
#448=DIRECTION('ref_axis',(-0.707106781186546,0.707106781186549,0.));
#449=DIRECTION('center_axis',(1.22464679914735E-16,0.,1.));
#450=DIRECTION('ref_axis',(-0.707106781186546,0.707106781186549,0.));
#451=DIRECTION('',(1.35393051783556E-16,0.,1.));
#452=DIRECTION('center_axis',(0.,1.,0.));
#453=DIRECTION('ref_axis',(-1.,0.,0.));
#454=DIRECTION('',(1.,0.,-1.22464679914735E-16));
#455=DIRECTION('',(0.,0.,1.));
#456=DIRECTION('',(0.,0.,1.));
#457=DIRECTION('center_axis',(-1.,0.,0.));
#458=DIRECTION('ref_axis',(0.,-1.,0.));
#459=DIRECTION('',(0.,1.,0.));
#460=DIRECTION('',(0.,0.,1.));
#461=DIRECTION('center_axis',(0.,-1.,0.));
#462=DIRECTION('ref_axis',(1.,0.,0.));
#463=DIRECTION('',(-1.,0.,1.22464679914735E-16));
#464=DIRECTION('',(0.,0.,1.));
#465=DIRECTION('center_axis',(1.,0.,0.));
#466=DIRECTION('ref_axis',(0.,1.,0.));
#467=DIRECTION('',(0.,-1.,0.));
#468=DIRECTION('center_axis',(-1.,0.,1.35393051783556E-16));
#469=DIRECTION('ref_axis',(1.35393051783556E-16,0.,1.));
#470=DIRECTION('',(0.,-1.,0.));
#471=DIRECTION('center_axis',(1.,0.,-1.35393051783556E-16));
#472=DIRECTION('ref_axis',(-1.35393051783556E-16,0.,-1.));
#473=DIRECTION('',(0.,1.,0.));
#474=DIRECTION('center_axis',(-1.,0.,1.22464679914735E-16));
#475=DIRECTION('ref_axis',(0.,-1.,0.));
#476=DIRECTION('',(0.,-1.,0.));
#477=DIRECTION('',(1.22464679914735E-16,0.,1.));
#478=DIRECTION('',(0.,1.,0.));
#479=DIRECTION('',(1.22464679914735E-16,0.,1.));
#480=DIRECTION('center_axis',(0.,1.,0.));
#481=DIRECTION('ref_axis',(-1.,0.,1.22464679914735E-16));
#482=DIRECTION('',(-1.,0.,1.22464679914735E-16));
#483=DIRECTION('',(1.22464679914735E-16,0.,1.));
#484=DIRECTION('',(1.,0.,-1.22464679914735E-16));
#485=DIRECTION('center_axis',(1.,0.,-1.22464679914735E-16));
#486=DIRECTION('ref_axis',(0.,1.,0.));
#487=DIRECTION('',(0.,1.,0.));
#488=DIRECTION('',(1.22464679914735E-16,0.,1.));
#489=DIRECTION('',(0.,-1.,0.));
#490=DIRECTION('center_axis',(0.,-1.,0.));
#491=DIRECTION('ref_axis',(1.,0.,-1.22464679914735E-16));
#492=DIRECTION('',(1.,0.,-1.22464679914735E-16));
#493=DIRECTION('',(-1.,0.,1.22464679914735E-16));
#494=DIRECTION('center_axis',(-1.22464679914735E-16,0.,-1.));
#495=DIRECTION('ref_axis',(-1.,0.,1.22464679914735E-16));
#496=DIRECTION('center_axis',(-1.22464679914735E-16,0.,-1.));
#497=DIRECTION('ref_axis',(-1.,0.,1.22464679914735E-16));
#498=CARTESIAN_POINT('',(0.,0.,0.));
#499=CARTESIAN_POINT('Origin',(-37.5325807571411,-85.9,4.00000005960465));
#500=CARTESIAN_POINT('',(-37.5325807571411,-87.9,8.00000005960465));
#501=CARTESIAN_POINT('',(-39.5325807571411,-85.9,8.00000005960465));
#502=CARTESIAN_POINT('Origin',(-37.5325807571411,-85.9,8.00000005960465));
#503=CARTESIAN_POINT('',(-39.5325807571411,-85.9,2.00000005960465));
#504=CARTESIAN_POINT('',(-39.5325807571411,-85.9,4.00000005960465));
#505=CARTESIAN_POINT('',(-37.5325807571411,-87.9,2.00000005960465));
#506=CARTESIAN_POINT('Origin',(-37.5325807571411,-85.9,2.00000005960465));
#507=CARTESIAN_POINT('',(-37.5325807571411,-87.9,4.00000005960465));
#508=CARTESIAN_POINT('Origin',(13.9674192428589,-41.9,8.00000005960465));
#509=CARTESIAN_POINT('',(65.4674192428589,-87.9,8.00000005960465));
#510=CARTESIAN_POINT('',(67.4674192428589,-87.9,8.00000005960465));
#511=CARTESIAN_POINT('',(67.4674192428589,-85.9,8.00000005960465));
#512=CARTESIAN_POINT('Origin',(65.4674192428589,-85.9,8.00000005960464));
#513=CARTESIAN_POINT('',(67.4674192428589,2.09999999999999,8.00000005960465));
#514=CARTESIAN_POINT('',(67.4674192428589,-85.9,8.00000005960465));
#515=CARTESIAN_POINT('',(65.4674192428589,4.1,8.00000005960465));
#516=CARTESIAN_POINT('Origin',(65.4674192428589,2.1,8.00000005960464));
#517=CARTESIAN_POINT('',(-37.5325807571411,4.1,8.00000005960465));
#518=CARTESIAN_POINT('',(67.4674192428589,4.1,8.00000005960465));
#519=CARTESIAN_POINT('',(-39.5325807571411,2.09999999999999,8.00000005960465));
#520=CARTESIAN_POINT('Origin',(-37.5325807571411,2.09999999999999,8.00000005960465));
#521=CARTESIAN_POINT('',(-39.5325807571411,-87.9,8.00000005960465));
#522=CARTESIAN_POINT('',(-37.5325807571411,-85.9,8.00000005960465));
#523=CARTESIAN_POINT('',(-37.5325807571411,2.10000000000001,8.00000005960465));
#524=CARTESIAN_POINT('',(-37.5325807571411,4.1,8.00000005960465));
#525=CARTESIAN_POINT('',(65.4674192428589,2.10000000000001,8.00000005960465));
#526=CARTESIAN_POINT('',(-39.5325807571411,2.1,8.00000005960465));
#527=CARTESIAN_POINT('',(65.4674192428589,-85.9,8.00000005960465));
#528=CARTESIAN_POINT('',(65.4674192428589,-87.9,8.00000005960465));
#529=CARTESIAN_POINT('',(-39.5325807571411,-85.9,8.00000005960465));
#530=CARTESIAN_POINT('Origin',(63.3674192428589,-87.9,4.00000005960464));
#531=CARTESIAN_POINT('',(65.4674192428589,-87.9,2.00000005960464));
#532=CARTESIAN_POINT('',(-35.4325807571411,-87.9,2.00000005960465));
#533=CARTESIAN_POINT('',(65.4674192428589,-87.9,4.00000005960464));
#534=CARTESIAN_POINT('Origin',(65.4674192428589,-85.9,4.00000005960464));
#535=CARTESIAN_POINT('',(67.4674192428589,-85.9,2.00000005960464));
#536=CARTESIAN_POINT('Origin',(65.4674192428589,-85.9,2.00000005960464));
#537=CARTESIAN_POINT('',(67.4674192428589,-85.9,4.00000005960464));
#538=CARTESIAN_POINT('Origin',(65.4674192428589,2.1,4.00000005960464));
#539=CARTESIAN_POINT('',(67.4674192428589,2.09999999999999,2.00000005960464));
#540=CARTESIAN_POINT('',(67.4674192428589,2.1,4.00000005960464));
#541=CARTESIAN_POINT('',(65.4674192428589,4.1,2.00000005960464));
#542=CARTESIAN_POINT('Origin',(65.4674192428589,2.1,2.00000005960464));
#543=CARTESIAN_POINT('',(65.4674192428589,4.1,4.00000005960464));
#544=CARTESIAN_POINT('Origin',(-35.4325807571411,4.1,4.00000005960465));
#545=CARTESIAN_POINT('',(-37.5325807571411,4.1,2.00000005960465));
#546=CARTESIAN_POINT('',(63.3674192428589,4.1,2.00000005960464));
#547=CARTESIAN_POINT('',(-37.5325807571411,4.1,4.00000005960465));
#548=CARTESIAN_POINT('Origin',(-37.5325807571411,2.09999999999999,4.00000005960465));
#549=CARTESIAN_POINT('',(-39.5325807571411,2.09999999999999,2.00000005960465));
#550=CARTESIAN_POINT('Origin',(-37.5325807571411,2.09999999999999,2.00000005960465));
#551=CARTESIAN_POINT('',(-39.5325807571411,2.09999999999999,4.00000005960465));
#552=CARTESIAN_POINT('Origin',(65.4674192428589,-85.9,4.00000005960465));
#553=CARTESIAN_POINT('',(-37.5325807571411,-85.9,4.00000005960465));
#554=CARTESIAN_POINT('',(65.4674192428589,-85.9,4.00000005960465));
#555=CARTESIAN_POINT('',(39.7174192428589,-85.9,4.00000005960464));
#556=CARTESIAN_POINT('',(-37.5325807571411,-85.9,4.00000005960465));
#557=CARTESIAN_POINT('',(65.4674192428589,-85.9,4.00000005960465));
#558=CARTESIAN_POINT('Origin',(65.4674192428589,2.10000000000001,4.00000005960465));
#559=CARTESIAN_POINT('',(65.4674192428589,2.1,4.00000005960465));
#560=CARTESIAN_POINT('',(65.4674192428589,-19.9,4.00000005960464));
#561=CARTESIAN_POINT('',(65.4674192428589,2.1,4.00000005960465));
#562=CARTESIAN_POINT('Origin',(-37.5325807571411,2.1,4.00000005960465));
#563=CARTESIAN_POINT('',(-37.5325807571411,2.1,4.00000005960465));
#564=CARTESIAN_POINT('',(-11.7825807571411,2.1,4.00000005960465));
#565=CARTESIAN_POINT('',(-37.5325807571411,2.1,4.00000005960465));
#566=CARTESIAN_POINT('Origin',(-37.5325807571411,-85.9,4.00000005960465));
#567=CARTESIAN_POINT('',(-37.5325807571411,-63.9,4.00000005960465));
#568=CARTESIAN_POINT('Origin',(-39.5325807571411,-83.8,4.00000005960465));
#569=CARTESIAN_POINT('',(-39.5325807571411,-83.8,2.00000005960465));
#570=CARTESIAN_POINT('Origin',(67.4674192428589,0.,4.00000005960464));
#571=CARTESIAN_POINT('',(67.4674192428589,-83.8,2.00000005960464));
#572=CARTESIAN_POINT('Origin',(-31.0925807571411,-9.1,2.00000005960465));
#573=CARTESIAN_POINT('',(-31.0925807571411,-9.1,2.00000005960465));
#574=CARTESIAN_POINT('',(-31.0925807571411,-65.5,2.00000005960465));
#575=CARTESIAN_POINT('',(-31.0925807571411,-25.5,2.00000005960465));
#576=CARTESIAN_POINT('',(-31.0925807571411,-9.1,4.00000005960465));
#577=CARTESIAN_POINT('',(-31.0925807571411,-9.1,2.00000005960465));
#578=CARTESIAN_POINT('',(-31.0925807571411,-65.5,4.00000005960465));
#579=CARTESIAN_POINT('',(-31.0925807571411,-25.5,4.00000005960465));
#580=CARTESIAN_POINT('',(-31.0925807571411,-65.5,2.00000005960465));
#581=CARTESIAN_POINT('Origin',(25.1674192428589,-9.1,2.00000005960465));
#582=CARTESIAN_POINT('',(25.1674192428589,-9.1,2.00000005960465));
#583=CARTESIAN_POINT('',(19.5674192428589,-9.1,2.00000005960465));
#584=CARTESIAN_POINT('',(25.1674192428589,-9.1,4.00000005960465));
#585=CARTESIAN_POINT('',(25.1674192428589,-9.1,2.00000005960465));
#586=CARTESIAN_POINT('',(19.5674192428589,-9.1,4.00000005960465));
#587=CARTESIAN_POINT('Origin',(25.1674192428589,-65.5,2.00000005960465));
#588=CARTESIAN_POINT('',(25.1674192428589,-65.5,2.00000005960465));
#589=CARTESIAN_POINT('',(25.1674192428589,-53.7,2.00000005960465));
#590=CARTESIAN_POINT('',(25.1674192428589,-65.5,4.00000005960465));
#591=CARTESIAN_POINT('',(25.1674192428589,-65.5,2.00000005960465));
#592=CARTESIAN_POINT('',(25.1674192428589,-53.7,4.00000005960465));
#593=CARTESIAN_POINT('Origin',(-31.0925807571411,-65.5,2.00000005960465));
#594=CARTESIAN_POINT('',(-8.56258075714113,-65.5,2.00000005960465));
#595=CARTESIAN_POINT('',(-8.56258075714113,-65.5,4.00000005960465));
#596=CARTESIAN_POINT('Origin',(13.9674192428589,-41.9,2.00000005960465));
#597=CARTESIAN_POINT('Origin',(13.9674192428589,-41.9,4.00000005960465));
#598=UNCERTAINTY_MEASURE_WITH_UNIT(LENGTH_MEASURE(0.01),#602,
'DISTANCE_ACCURACY_VALUE',
'Maximum model space distance between geometric entities at asserted c
onnectivities');
#599=UNCERTAINTY_MEASURE_WITH_UNIT(LENGTH_MEASURE(0.01),#602,
'DISTANCE_ACCURACY_VALUE',
'Maximum model space distance between geometric entities at asserted c
onnectivities');
#600=(
GEOMETRIC_REPRESENTATION_CONTEXT(3)
GLOBAL_UNCERTAINTY_ASSIGNED_CONTEXT((#598))
GLOBAL_UNIT_ASSIGNED_CONTEXT((#602,#604,#605))
REPRESENTATION_CONTEXT('','3D')
);
#601=(
GEOMETRIC_REPRESENTATION_CONTEXT(3)
GLOBAL_UNCERTAINTY_ASSIGNED_CONTEXT((#599))
GLOBAL_UNIT_ASSIGNED_CONTEXT((#602,#604,#605))
REPRESENTATION_CONTEXT('','3D')
);
#602=(
LENGTH_UNIT()
NAMED_UNIT(*)
SI_UNIT(.MILLI.,.METRE.)
);
#603=(
LENGTH_UNIT()
NAMED_UNIT(*)
SI_UNIT($,.METRE.)
);
#604=(
NAMED_UNIT(*)
PLANE_ANGLE_UNIT()
SI_UNIT($,.RADIAN.)
);
#605=(
NAMED_UNIT(*)
SI_UNIT($,.STERADIAN.)
SOLID_ANGLE_UNIT()
);
#606=SHAPE_DEFINITION_REPRESENTATION(#607,#608);
#607=PRODUCT_DEFINITION_SHAPE('',$,#610);
#608=SHAPE_REPRESENTATION('',(#374),#600);
#609=PRODUCT_DEFINITION_CONTEXT('part definition',#614,'design');
#610=PRODUCT_DEFINITION('2026-07-08-15-24-41-501','Top case',#611,#609);
#611=PRODUCT_DEFINITION_FORMATION('',$,#616);
#612=PRODUCT_RELATED_PRODUCT_CATEGORY('Top case','Top case',(#616));
#613=APPLICATION_PROTOCOL_DEFINITION('international standard',
'automotive_design',2009,#614);
#614=APPLICATION_CONTEXT(
'Core Data for Automotive Mechanical Design Process');
#615=PRODUCT_CONTEXT('part definition',#614,'mechanical');
#616=PRODUCT('2026-07-08-15-24-41-501','Top case',$,(#615));
#617=PRESENTATION_STYLE_ASSIGNMENT((#618));
#618=SURFACE_STYLE_USAGE(.BOTH.,#619);
#619=SURFACE_SIDE_STYLE('',(#620));
#620=SURFACE_STYLE_FILL_AREA(#621);
#621=FILL_AREA_STYLE('Steel - Satin',(#622));
#622=FILL_AREA_STYLE_COLOUR('Steel - Satin',#623);
#623=COLOUR_RGB('Steel - Satin',0.627450980392157,0.627450980392157,0.627450980392157);
ENDSEC;
END-ISO-10303-21;
