ISO-10303-21;
HEADER;
/* Generated by software containing ST-Developer
 * from STEP Tools, Inc. (www.steptools.com) 
 */

FILE_DESCRIPTION(
/* description */ (''),
/* implementation_level */ '2;1');

FILE_NAME(
/* name */ 'bottom case.step',
/* time_stamp */ '2026-06-20T20:17:43+05:30',
/* author */ (''),
/* organization */ (''),
/* preprocessor_version */ 'ST-DEVELOPER v20.1',
/* originating_system */ 'Autodesk Translation Framework v15.8.0.0',
/* authorisation */ '');

FILE_SCHEMA (('AUTOMOTIVE_DESIGN { 1 0 10303 214 3 1 1 }'));
ENDSEC;

DATA;
#10=MECHANICAL_DESIGN_GEOMETRIC_PRESENTATION_REPRESENTATION('',(#13,#14),
#929);
#11=SHAPE_REPRESENTATION_RELATIONSHIP('SRR','None',#936,#12);
#12=ADVANCED_BREP_SHAPE_REPRESENTATION('',(#15,#16),#928);
#13=STYLED_ITEM('',(#945),#15);
#14=STYLED_ITEM('',(#945),#16);
#15=MANIFOLD_SOLID_BREP('Body13',#536);
#16=MANIFOLD_SOLID_BREP('Body15',#537);
#17=FACE_BOUND('',#111,.T.);
#18=FACE_BOUND('',#117,.T.);
#19=FACE_BOUND('',#120,.T.);
#20=FACE_BOUND('',#123,.T.);
#21=FACE_BOUND('',#125,.T.);
#22=FACE_BOUND('',#134,.T.);
#23=FACE_BOUND('',#138,.T.);
#24=FACE_BOUND('',#139,.T.);
#25=FACE_BOUND('',#140,.T.);
#26=PLANE('',#562);
#27=PLANE('',#566);
#28=PLANE('',#570);
#29=PLANE('',#571);
#30=PLANE('',#579);
#31=PLANE('',#583);
#32=PLANE('',#587);
#33=PLANE('',#590);
#34=PLANE('',#591);
#35=PLANE('',#596);
#36=PLANE('',#598);
#37=PLANE('',#600);
#38=PLANE('',#601);
#39=PLANE('',#602);
#40=PLANE('',#603);
#41=PLANE('',#604);
#42=PLANE('',#605);
#43=PLANE('',#609);
#44=PLANE('',#610);
#45=CIRCLE('',#560,2.6);
#46=CIRCLE('',#561,2.6);
#47=CIRCLE('',#564,2.60000000000001);
#48=CIRCLE('',#565,2.60000000000001);
#49=CIRCLE('',#568,3.5);
#50=CIRCLE('',#569,3.5);
#51=CIRCLE('',#572,3.);
#52=CIRCLE('',#573,3.);
#53=CIRCLE('',#574,3.);
#54=CIRCLE('',#575,3.);
#55=CIRCLE('',#577,2.60000000000001);
#56=CIRCLE('',#578,2.60000000000001);
#57=CIRCLE('',#581,3.);
#58=CIRCLE('',#582,3.);
#59=CIRCLE('',#585,3.);
#60=CIRCLE('',#586,3.);
#61=CIRCLE('',#589,3.);
#62=CIRCLE('',#592,3.);
#63=CIRCLE('',#593,3.);
#64=CIRCLE('',#594,3.);
#65=CIRCLE('',#607,2.6);
#66=CIRCLE('',#608,2.6);
#67=FACE_OUTER_BOUND('',#101,.T.);
#68=FACE_OUTER_BOUND('',#102,.T.);
#69=FACE_OUTER_BOUND('',#103,.T.);
#70=FACE_OUTER_BOUND('',#104,.T.);
#71=FACE_OUTER_BOUND('',#105,.T.);
#72=FACE_OUTER_BOUND('',#106,.T.);
#73=FACE_OUTER_BOUND('',#107,.T.);
#74=FACE_OUTER_BOUND('',#108,.T.);
#75=FACE_OUTER_BOUND('',#109,.T.);
#76=FACE_OUTER_BOUND('',#110,.T.);
#77=FACE_OUTER_BOUND('',#112,.T.);
#78=FACE_OUTER_BOUND('',#113,.T.);
#79=FACE_OUTER_BOUND('',#114,.T.);
#80=FACE_OUTER_BOUND('',#115,.T.);
#81=FACE_OUTER_BOUND('',#116,.T.);
#82=FACE_OUTER_BOUND('',#118,.T.);
#83=FACE_OUTER_BOUND('',#119,.T.);
#84=FACE_OUTER_BOUND('',#121,.T.);
#85=FACE_OUTER_BOUND('',#122,.T.);
#86=FACE_OUTER_BOUND('',#124,.T.);
#87=FACE_OUTER_BOUND('',#126,.T.);
#88=FACE_OUTER_BOUND('',#127,.T.);
#89=FACE_OUTER_BOUND('',#128,.T.);
#90=FACE_OUTER_BOUND('',#129,.T.);
#91=FACE_OUTER_BOUND('',#130,.T.);
#92=FACE_OUTER_BOUND('',#131,.T.);
#93=FACE_OUTER_BOUND('',#132,.T.);
#94=FACE_OUTER_BOUND('',#133,.T.);
#95=FACE_OUTER_BOUND('',#135,.T.);
#96=FACE_OUTER_BOUND('',#136,.T.);
#97=FACE_OUTER_BOUND('',#137,.T.);
#98=FACE_OUTER_BOUND('',#141,.T.);
#99=FACE_OUTER_BOUND('',#142,.T.);
#100=FACE_OUTER_BOUND('',#143,.T.);
#101=EDGE_LOOP('',(#349,#350,#351,#352));
#102=EDGE_LOOP('',(#353,#354,#355,#356));
#103=EDGE_LOOP('',(#357,#358,#359,#360));
#104=EDGE_LOOP('',(#361,#362,#363,#364));
#105=EDGE_LOOP('',(#365,#366,#367,#368));
#106=EDGE_LOOP('',(#369));
#107=EDGE_LOOP('',(#370,#371,#372,#373));
#108=EDGE_LOOP('',(#374));
#109=EDGE_LOOP('',(#375,#376,#377,#378));
#110=EDGE_LOOP('',(#379));
#111=EDGE_LOOP('',(#380));
#112=EDGE_LOOP('',(#381,#382,#383,#384,#385,#386,#387,#388));
#113=EDGE_LOOP('',(#389,#390,#391,#392));
#114=EDGE_LOOP('',(#393));
#115=EDGE_LOOP('',(#394,#395,#396,#397));
#116=EDGE_LOOP('',(#398));
#117=EDGE_LOOP('',(#399));
#118=EDGE_LOOP('',(#400,#401,#402,#403));
#119=EDGE_LOOP('',(#404));
#120=EDGE_LOOP('',(#405));
#121=EDGE_LOOP('',(#406,#407,#408,#409));
#122=EDGE_LOOP('',(#410,#411,#412,#413));
#123=EDGE_LOOP('',(#414,#415,#416,#417));
#124=EDGE_LOOP('',(#418,#419,#420,#421,#422,#423,#424,#425));
#125=EDGE_LOOP('',(#426,#427,#428,#429));
#126=EDGE_LOOP('',(#430,#431,#432,#433));
#127=EDGE_LOOP('',(#434,#435,#436,#437));
#128=EDGE_LOOP('',(#438,#439,#440,#441));
#129=EDGE_LOOP('',(#442,#443,#444,#445));
#130=EDGE_LOOP('',(#446,#447,#448,#449));
#131=EDGE_LOOP('',(#450,#451,#452,#453));
#132=EDGE_LOOP('',(#454,#455,#456,#457));
#133=EDGE_LOOP('',(#458,#459,#460,#461));
#134=EDGE_LOOP('',(#462,#463,#464,#465));
#135=EDGE_LOOP('',(#466,#467,#468,#469));
#136=EDGE_LOOP('',(#470,#471,#472,#473));
#137=EDGE_LOOP('',(#474,#475,#476,#477));
#138=EDGE_LOOP('',(#478));
#139=EDGE_LOOP('',(#479));
#140=EDGE_LOOP('',(#480));
#141=EDGE_LOOP('',(#481,#482,#483,#484));
#142=EDGE_LOOP('',(#485));
#143=EDGE_LOOP('',(#486));
#144=LINE('',#782,#187);
#145=LINE('',#785,#188);
#146=LINE('',#790,#189);
#147=LINE('',#791,#190);
#148=LINE('',#796,#191);
#149=LINE('',#797,#192);
#150=LINE('',#799,#193);
#151=LINE('',#800,#194);
#152=LINE('',#805,#195);
#153=LINE('',#812,#196);
#154=LINE('',#819,#197);
#155=LINE('',#827,#198);
#156=LINE('',#831,#199);
#157=LINE('',#835,#200);
#158=LINE('',#838,#201);
#159=LINE('',#843,#202);
#160=LINE('',#850,#203);
#161=LINE('',#857,#204);
#162=LINE('',#864,#205);
#163=LINE('',#865,#206);
#164=LINE('',#868,#207);
#165=LINE('',#869,#208);
#166=LINE('',#872,#209);
#167=LINE('',#876,#210);
#168=LINE('',#880,#211);
#169=LINE('',#884,#212);
#170=LINE('',#886,#213);
#171=LINE('',#888,#214);
#172=LINE('',#889,#215);
#173=LINE('',#891,#216);
#174=LINE('',#893,#217);
#175=LINE('',#895,#218);
#176=LINE('',#897,#219);
#177=LINE('',#899,#220);
#178=LINE('',#904,#221);
#179=LINE('',#905,#222);
#180=LINE('',#906,#223);
#181=LINE('',#909,#224);
#182=LINE('',#910,#225);
#183=LINE('',#913,#226);
#184=LINE('',#914,#227);
#185=LINE('',#916,#228);
#186=LINE('',#922,#229);
#187=VECTOR('',#617,10.);
#188=VECTOR('',#620,10.);
#189=VECTOR('',#625,10.);
#190=VECTOR('',#626,10.);
#191=VECTOR('',#631,10.);
#192=VECTOR('',#632,10.);
#193=VECTOR('',#635,10.);
#194=VECTOR('',#636,10.);
#195=VECTOR('',#641,2.6);
#196=VECTOR('',#650,2.60000000000001);
#197=VECTOR('',#659,3.5);
#198=VECTOR('',#668,10.);
#199=VECTOR('',#671,10.);
#200=VECTOR('',#674,10.);
#201=VECTOR('',#677,10.);
#202=VECTOR('',#682,2.60000000000001);
#203=VECTOR('',#691,3.);
#204=VECTOR('',#700,3.);
#205=VECTOR('',#709,10.);
#206=VECTOR('',#710,10.);
#207=VECTOR('',#713,10.);
#208=VECTOR('',#714,10.);
#209=VECTOR('',#717,10.);
#210=VECTOR('',#720,10.);
#211=VECTOR('',#723,10.);
#212=VECTOR('',#726,10.);
#213=VECTOR('',#727,10.);
#214=VECTOR('',#728,10.);
#215=VECTOR('',#729,10.);
#216=VECTOR('',#732,10.);
#217=VECTOR('',#735,10.);
#218=VECTOR('',#738,10.);
#219=VECTOR('',#741,10.);
#220=VECTOR('',#744,10.);
#221=VECTOR('',#749,10.);
#222=VECTOR('',#750,10.);
#223=VECTOR('',#751,10.);
#224=VECTOR('',#754,10.);
#225=VECTOR('',#755,10.);
#226=VECTOR('',#758,10.);
#227=VECTOR('',#759,10.);
#228=VECTOR('',#762,10.);
#229=VECTOR('',#769,2.6);
#230=ELLIPSE('',#552,1.41421356237309,1.);
#231=ELLIPSE('',#553,1.4142135623731,1.);
#232=ELLIPSE('',#555,1.41421356237309,1.);
#233=ELLIPSE('',#557,1.4142135623731,1.);
#234=VERTEX_POINT('',#778);
#235=VERTEX_POINT('',#779);
#236=VERTEX_POINT('',#781);
#237=VERTEX_POINT('',#783);
#238=VERTEX_POINT('',#787);
#239=VERTEX_POINT('',#788);
#240=VERTEX_POINT('',#793);
#241=VERTEX_POINT('',#794);
#242=VERTEX_POINT('',#802);
#243=VERTEX_POINT('',#804);
#244=VERTEX_POINT('',#809);
#245=VERTEX_POINT('',#811);
#246=VERTEX_POINT('',#816);
#247=VERTEX_POINT('',#818);
#248=VERTEX_POINT('',#823);
#249=VERTEX_POINT('',#824);
#250=VERTEX_POINT('',#826);
#251=VERTEX_POINT('',#828);
#252=VERTEX_POINT('',#830);
#253=VERTEX_POINT('',#832);
#254=VERTEX_POINT('',#834);
#255=VERTEX_POINT('',#836);
#256=VERTEX_POINT('',#840);
#257=VERTEX_POINT('',#842);
#258=VERTEX_POINT('',#847);
#259=VERTEX_POINT('',#849);
#260=VERTEX_POINT('',#854);
#261=VERTEX_POINT('',#856);
#262=VERTEX_POINT('',#861);
#263=VERTEX_POINT('',#862);
#264=VERTEX_POINT('',#867);
#265=VERTEX_POINT('',#871);
#266=VERTEX_POINT('',#873);
#267=VERTEX_POINT('',#875);
#268=VERTEX_POINT('',#877);
#269=VERTEX_POINT('',#879);
#270=VERTEX_POINT('',#882);
#271=VERTEX_POINT('',#883);
#272=VERTEX_POINT('',#885);
#273=VERTEX_POINT('',#887);
#274=VERTEX_POINT('',#902);
#275=VERTEX_POINT('',#903);
#276=VERTEX_POINT('',#908);
#277=VERTEX_POINT('',#912);
#278=VERTEX_POINT('',#919);
#279=VERTEX_POINT('',#921);
#280=EDGE_CURVE('',#234,#235,#230,.F.);
#281=EDGE_CURVE('',#235,#236,#144,.T.);
#282=EDGE_CURVE('',#237,#236,#231,.F.);
#283=EDGE_CURVE('',#237,#234,#145,.T.);
#284=EDGE_CURVE('',#238,#239,#232,.F.);
#285=EDGE_CURVE('',#239,#237,#146,.T.);
#286=EDGE_CURVE('',#236,#238,#147,.T.);
#287=EDGE_CURVE('',#240,#241,#233,.F.);
#288=EDGE_CURVE('',#241,#235,#148,.T.);
#289=EDGE_CURVE('',#234,#240,#149,.T.);
#290=EDGE_CURVE('',#240,#239,#150,.T.);
#291=EDGE_CURVE('',#238,#241,#151,.T.);
#292=EDGE_CURVE('',#242,#242,#45,.T.);
#293=EDGE_CURVE('',#242,#243,#152,.T.);
#294=EDGE_CURVE('',#243,#243,#46,.T.);
#295=EDGE_CURVE('',#244,#244,#47,.T.);
#296=EDGE_CURVE('',#244,#245,#153,.T.);
#297=EDGE_CURVE('',#245,#245,#48,.T.);
#298=EDGE_CURVE('',#246,#246,#49,.T.);
#299=EDGE_CURVE('',#246,#247,#154,.T.);
#300=EDGE_CURVE('',#247,#247,#50,.T.);
#301=EDGE_CURVE('',#248,#249,#51,.T.);
#302=EDGE_CURVE('',#250,#248,#155,.T.);
#303=EDGE_CURVE('',#251,#250,#52,.T.);
#304=EDGE_CURVE('',#252,#251,#156,.T.);
#305=EDGE_CURVE('',#253,#252,#53,.T.);
#306=EDGE_CURVE('',#254,#253,#157,.T.);
#307=EDGE_CURVE('',#255,#254,#54,.T.);
#308=EDGE_CURVE('',#249,#255,#158,.T.);
#309=EDGE_CURVE('',#256,#256,#55,.T.);
#310=EDGE_CURVE('',#256,#257,#159,.T.);
#311=EDGE_CURVE('',#257,#257,#56,.T.);
#312=EDGE_CURVE('',#258,#258,#57,.T.);
#313=EDGE_CURVE('',#258,#259,#160,.T.);
#314=EDGE_CURVE('',#259,#259,#58,.T.);
#315=EDGE_CURVE('',#260,#260,#59,.T.);
#316=EDGE_CURVE('',#260,#261,#161,.T.);
#317=EDGE_CURVE('',#261,#261,#60,.T.);
#318=EDGE_CURVE('',#262,#263,#61,.T.);
#319=EDGE_CURVE('',#263,#248,#162,.T.);
#320=EDGE_CURVE('',#249,#262,#163,.T.);
#321=EDGE_CURVE('',#264,#263,#164,.T.);
#322=EDGE_CURVE('',#250,#264,#165,.T.);
#323=EDGE_CURVE('',#262,#265,#166,.T.);
#324=EDGE_CURVE('',#266,#265,#62,.T.);
#325=EDGE_CURVE('',#266,#267,#167,.T.);
#326=EDGE_CURVE('',#268,#267,#63,.T.);
#327=EDGE_CURVE('',#268,#269,#168,.T.);
#328=EDGE_CURVE('',#264,#269,#64,.T.);
#329=EDGE_CURVE('',#270,#271,#169,.T.);
#330=EDGE_CURVE('',#271,#272,#170,.T.);
#331=EDGE_CURVE('',#272,#273,#171,.T.);
#332=EDGE_CURVE('',#273,#270,#172,.T.);
#333=EDGE_CURVE('',#269,#251,#173,.T.);
#334=EDGE_CURVE('',#252,#268,#174,.T.);
#335=EDGE_CURVE('',#267,#253,#175,.T.);
#336=EDGE_CURVE('',#254,#266,#176,.T.);
#337=EDGE_CURVE('',#265,#255,#177,.T.);
#338=EDGE_CURVE('',#274,#275,#178,.T.);
#339=EDGE_CURVE('',#274,#270,#179,.T.);
#340=EDGE_CURVE('',#275,#273,#180,.T.);
#341=EDGE_CURVE('',#275,#276,#181,.T.);
#342=EDGE_CURVE('',#276,#272,#182,.T.);
#343=EDGE_CURVE('',#276,#277,#183,.T.);
#344=EDGE_CURVE('',#277,#271,#184,.T.);
#345=EDGE_CURVE('',#277,#274,#185,.T.);
#346=EDGE_CURVE('',#278,#278,#65,.T.);
#347=EDGE_CURVE('',#278,#279,#186,.T.);
#348=EDGE_CURVE('',#279,#279,#66,.T.);
#349=ORIENTED_EDGE('',*,*,#280,.T.);
#350=ORIENTED_EDGE('',*,*,#281,.T.);
#351=ORIENTED_EDGE('',*,*,#282,.F.);
#352=ORIENTED_EDGE('',*,*,#283,.T.);
#353=ORIENTED_EDGE('',*,*,#284,.T.);
#354=ORIENTED_EDGE('',*,*,#285,.T.);
#355=ORIENTED_EDGE('',*,*,#282,.T.);
#356=ORIENTED_EDGE('',*,*,#286,.T.);
#357=ORIENTED_EDGE('',*,*,#287,.T.);
#358=ORIENTED_EDGE('',*,*,#288,.T.);
#359=ORIENTED_EDGE('',*,*,#280,.F.);
#360=ORIENTED_EDGE('',*,*,#289,.T.);
#361=ORIENTED_EDGE('',*,*,#287,.F.);
#362=ORIENTED_EDGE('',*,*,#290,.T.);
#363=ORIENTED_EDGE('',*,*,#284,.F.);
#364=ORIENTED_EDGE('',*,*,#291,.T.);
#365=ORIENTED_EDGE('',*,*,#292,.F.);
#366=ORIENTED_EDGE('',*,*,#293,.T.);
#367=ORIENTED_EDGE('',*,*,#294,.T.);
#368=ORIENTED_EDGE('',*,*,#293,.F.);
#369=ORIENTED_EDGE('',*,*,#294,.F.);
#370=ORIENTED_EDGE('',*,*,#295,.F.);
#371=ORIENTED_EDGE('',*,*,#296,.T.);
#372=ORIENTED_EDGE('',*,*,#297,.T.);
#373=ORIENTED_EDGE('',*,*,#296,.F.);
#374=ORIENTED_EDGE('',*,*,#297,.F.);
#375=ORIENTED_EDGE('',*,*,#298,.F.);
#376=ORIENTED_EDGE('',*,*,#299,.T.);
#377=ORIENTED_EDGE('',*,*,#300,.F.);
#378=ORIENTED_EDGE('',*,*,#299,.F.);
#379=ORIENTED_EDGE('',*,*,#298,.T.);
#380=ORIENTED_EDGE('',*,*,#292,.T.);
#381=ORIENTED_EDGE('',*,*,#301,.F.);
#382=ORIENTED_EDGE('',*,*,#302,.F.);
#383=ORIENTED_EDGE('',*,*,#303,.F.);
#384=ORIENTED_EDGE('',*,*,#304,.F.);
#385=ORIENTED_EDGE('',*,*,#305,.F.);
#386=ORIENTED_EDGE('',*,*,#306,.F.);
#387=ORIENTED_EDGE('',*,*,#307,.F.);
#388=ORIENTED_EDGE('',*,*,#308,.F.);
#389=ORIENTED_EDGE('',*,*,#309,.F.);
#390=ORIENTED_EDGE('',*,*,#310,.T.);
#391=ORIENTED_EDGE('',*,*,#311,.T.);
#392=ORIENTED_EDGE('',*,*,#310,.F.);
#393=ORIENTED_EDGE('',*,*,#311,.F.);
#394=ORIENTED_EDGE('',*,*,#312,.F.);
#395=ORIENTED_EDGE('',*,*,#313,.T.);
#396=ORIENTED_EDGE('',*,*,#314,.F.);
#397=ORIENTED_EDGE('',*,*,#313,.F.);
#398=ORIENTED_EDGE('',*,*,#312,.T.);
#399=ORIENTED_EDGE('',*,*,#309,.T.);
#400=ORIENTED_EDGE('',*,*,#315,.F.);
#401=ORIENTED_EDGE('',*,*,#316,.T.);
#402=ORIENTED_EDGE('',*,*,#317,.F.);
#403=ORIENTED_EDGE('',*,*,#316,.F.);
#404=ORIENTED_EDGE('',*,*,#315,.T.);
#405=ORIENTED_EDGE('',*,*,#295,.T.);
#406=ORIENTED_EDGE('',*,*,#318,.T.);
#407=ORIENTED_EDGE('',*,*,#319,.T.);
#408=ORIENTED_EDGE('',*,*,#301,.T.);
#409=ORIENTED_EDGE('',*,*,#320,.T.);
#410=ORIENTED_EDGE('',*,*,#319,.F.);
#411=ORIENTED_EDGE('',*,*,#321,.F.);
#412=ORIENTED_EDGE('',*,*,#322,.F.);
#413=ORIENTED_EDGE('',*,*,#302,.T.);
#414=ORIENTED_EDGE('',*,*,#281,.F.);
#415=ORIENTED_EDGE('',*,*,#288,.F.);
#416=ORIENTED_EDGE('',*,*,#291,.F.);
#417=ORIENTED_EDGE('',*,*,#286,.F.);
#418=ORIENTED_EDGE('',*,*,#318,.F.);
#419=ORIENTED_EDGE('',*,*,#323,.T.);
#420=ORIENTED_EDGE('',*,*,#324,.F.);
#421=ORIENTED_EDGE('',*,*,#325,.T.);
#422=ORIENTED_EDGE('',*,*,#326,.F.);
#423=ORIENTED_EDGE('',*,*,#327,.T.);
#424=ORIENTED_EDGE('',*,*,#328,.F.);
#425=ORIENTED_EDGE('',*,*,#321,.T.);
#426=ORIENTED_EDGE('',*,*,#329,.T.);
#427=ORIENTED_EDGE('',*,*,#330,.T.);
#428=ORIENTED_EDGE('',*,*,#331,.T.);
#429=ORIENTED_EDGE('',*,*,#332,.T.);
#430=ORIENTED_EDGE('',*,*,#328,.T.);
#431=ORIENTED_EDGE('',*,*,#333,.T.);
#432=ORIENTED_EDGE('',*,*,#303,.T.);
#433=ORIENTED_EDGE('',*,*,#322,.T.);
#434=ORIENTED_EDGE('',*,*,#333,.F.);
#435=ORIENTED_EDGE('',*,*,#327,.F.);
#436=ORIENTED_EDGE('',*,*,#334,.F.);
#437=ORIENTED_EDGE('',*,*,#304,.T.);
#438=ORIENTED_EDGE('',*,*,#326,.T.);
#439=ORIENTED_EDGE('',*,*,#335,.T.);
#440=ORIENTED_EDGE('',*,*,#305,.T.);
#441=ORIENTED_EDGE('',*,*,#334,.T.);
#442=ORIENTED_EDGE('',*,*,#335,.F.);
#443=ORIENTED_EDGE('',*,*,#325,.F.);
#444=ORIENTED_EDGE('',*,*,#336,.F.);
#445=ORIENTED_EDGE('',*,*,#306,.T.);
#446=ORIENTED_EDGE('',*,*,#324,.T.);
#447=ORIENTED_EDGE('',*,*,#337,.T.);
#448=ORIENTED_EDGE('',*,*,#307,.T.);
#449=ORIENTED_EDGE('',*,*,#336,.T.);
#450=ORIENTED_EDGE('',*,*,#320,.F.);
#451=ORIENTED_EDGE('',*,*,#308,.T.);
#452=ORIENTED_EDGE('',*,*,#337,.F.);
#453=ORIENTED_EDGE('',*,*,#323,.F.);
#454=ORIENTED_EDGE('',*,*,#338,.F.);
#455=ORIENTED_EDGE('',*,*,#339,.T.);
#456=ORIENTED_EDGE('',*,*,#332,.F.);
#457=ORIENTED_EDGE('',*,*,#340,.F.);
#458=ORIENTED_EDGE('',*,*,#341,.F.);
#459=ORIENTED_EDGE('',*,*,#340,.T.);
#460=ORIENTED_EDGE('',*,*,#331,.F.);
#461=ORIENTED_EDGE('',*,*,#342,.F.);
#462=ORIENTED_EDGE('',*,*,#285,.F.);
#463=ORIENTED_EDGE('',*,*,#290,.F.);
#464=ORIENTED_EDGE('',*,*,#289,.F.);
#465=ORIENTED_EDGE('',*,*,#283,.F.);
#466=ORIENTED_EDGE('',*,*,#343,.F.);
#467=ORIENTED_EDGE('',*,*,#342,.T.);
#468=ORIENTED_EDGE('',*,*,#330,.F.);
#469=ORIENTED_EDGE('',*,*,#344,.F.);
#470=ORIENTED_EDGE('',*,*,#345,.F.);
#471=ORIENTED_EDGE('',*,*,#344,.T.);
#472=ORIENTED_EDGE('',*,*,#329,.F.);
#473=ORIENTED_EDGE('',*,*,#339,.F.);
#474=ORIENTED_EDGE('',*,*,#338,.T.);
#475=ORIENTED_EDGE('',*,*,#341,.T.);
#476=ORIENTED_EDGE('',*,*,#343,.T.);
#477=ORIENTED_EDGE('',*,*,#345,.T.);
#478=ORIENTED_EDGE('',*,*,#300,.T.);
#479=ORIENTED_EDGE('',*,*,#314,.T.);
#480=ORIENTED_EDGE('',*,*,#317,.T.);
#481=ORIENTED_EDGE('',*,*,#346,.F.);
#482=ORIENTED_EDGE('',*,*,#347,.T.);
#483=ORIENTED_EDGE('',*,*,#348,.F.);
#484=ORIENTED_EDGE('',*,*,#347,.F.);
#485=ORIENTED_EDGE('',*,*,#348,.T.);
#486=ORIENTED_EDGE('',*,*,#346,.T.);
#487=CYLINDRICAL_SURFACE('',#551,1.);
#488=CYLINDRICAL_SURFACE('',#554,1.);
#489=CYLINDRICAL_SURFACE('',#556,1.);
#490=CYLINDRICAL_SURFACE('',#558,1.);
#491=CYLINDRICAL_SURFACE('',#559,2.6);
#492=CYLINDRICAL_SURFACE('',#563,2.60000000000001);
#493=CYLINDRICAL_SURFACE('',#567,3.5);
#494=CYLINDRICAL_SURFACE('',#576,2.60000000000001);
#495=CYLINDRICAL_SURFACE('',#580,3.);
#496=CYLINDRICAL_SURFACE('',#584,3.);
#497=CYLINDRICAL_SURFACE('',#588,3.);
#498=CYLINDRICAL_SURFACE('',#595,3.);
#499=CYLINDRICAL_SURFACE('',#597,3.);
#500=CYLINDRICAL_SURFACE('',#599,3.);
#501=CYLINDRICAL_SURFACE('',#606,2.6);
#502=ADVANCED_FACE('',(#67),#487,.T.);
#503=ADVANCED_FACE('',(#68),#488,.T.);
#504=ADVANCED_FACE('',(#69),#489,.T.);
#505=ADVANCED_FACE('',(#70),#490,.T.);
#506=ADVANCED_FACE('',(#71),#491,.F.);
#507=ADVANCED_FACE('',(#72),#26,.T.);
#508=ADVANCED_FACE('',(#73),#492,.F.);
#509=ADVANCED_FACE('',(#74),#27,.T.);
#510=ADVANCED_FACE('',(#75),#493,.T.);
#511=ADVANCED_FACE('',(#76,#17),#28,.T.);
#512=ADVANCED_FACE('',(#77),#29,.F.);
#513=ADVANCED_FACE('',(#78),#494,.F.);
#514=ADVANCED_FACE('',(#79),#30,.T.);
#515=ADVANCED_FACE('',(#80),#495,.T.);
#516=ADVANCED_FACE('',(#81,#18),#31,.T.);
#517=ADVANCED_FACE('',(#82),#496,.T.);
#518=ADVANCED_FACE('',(#83,#19),#32,.T.);
#519=ADVANCED_FACE('',(#84),#497,.T.);
#520=ADVANCED_FACE('',(#85,#20),#33,.T.);
#521=ADVANCED_FACE('',(#86,#21),#34,.T.);
#522=ADVANCED_FACE('',(#87),#498,.T.);
#523=ADVANCED_FACE('',(#88),#35,.T.);
#524=ADVANCED_FACE('',(#89),#499,.T.);
#525=ADVANCED_FACE('',(#90),#36,.T.);
#526=ADVANCED_FACE('',(#91),#500,.T.);
#527=ADVANCED_FACE('',(#92),#37,.T.);
#528=ADVANCED_FACE('',(#93),#38,.T.);
#529=ADVANCED_FACE('',(#94,#22),#39,.T.);
#530=ADVANCED_FACE('',(#95),#40,.T.);
#531=ADVANCED_FACE('',(#96),#41,.T.);
#532=ADVANCED_FACE('',(#97,#23,#24,#25),#42,.T.);
#533=ADVANCED_FACE('',(#98),#501,.T.);
#534=ADVANCED_FACE('',(#99),#43,.T.);
#535=ADVANCED_FACE('',(#100),#44,.F.);
#536=CLOSED_SHELL('',(#502,#503,#504,#505,#506,#507,#508,#509,#510,#511,
#512,#513,#514,#515,#516,#517,#518,#519,#520,#521,#522,#523,#524,#525,#526,
#527,#528,#529,#530,#531,#532));
#537=CLOSED_SHELL('',(#533,#534,#535));
#538=DERIVED_UNIT_ELEMENT(#540,1.);
#539=DERIVED_UNIT_ELEMENT(#931,-3.);
#540=(
MASS_UNIT()
NAMED_UNIT(*)
SI_UNIT(.KILO.,.GRAM.)
);
#541=DERIVED_UNIT((#538,#539));
#542=MEASURE_REPRESENTATION_ITEM('density measure',
POSITIVE_RATIO_MEASURE(7850.),#541);
#543=PROPERTY_DEFINITION_REPRESENTATION(#548,#545);
#544=PROPERTY_DEFINITION_REPRESENTATION(#549,#546);
#545=REPRESENTATION('material name',(#547),#928);
#546=REPRESENTATION('density',(#542),#928);
#547=DESCRIPTIVE_REPRESENTATION_ITEM('Steel','Steel');
#548=PROPERTY_DEFINITION('material property','material name',#938);
#549=PROPERTY_DEFINITION('material property','density of part',#938);
#550=AXIS2_PLACEMENT_3D('',#776,#611,#612);
#551=AXIS2_PLACEMENT_3D('',#777,#613,#614);
#552=AXIS2_PLACEMENT_3D('',#780,#615,#616);
#553=AXIS2_PLACEMENT_3D('',#784,#618,#619);
#554=AXIS2_PLACEMENT_3D('',#786,#621,#622);
#555=AXIS2_PLACEMENT_3D('',#789,#623,#624);
#556=AXIS2_PLACEMENT_3D('',#792,#627,#628);
#557=AXIS2_PLACEMENT_3D('',#795,#629,#630);
#558=AXIS2_PLACEMENT_3D('',#798,#633,#634);
#559=AXIS2_PLACEMENT_3D('',#801,#637,#638);
#560=AXIS2_PLACEMENT_3D('',#803,#639,#640);
#561=AXIS2_PLACEMENT_3D('',#806,#642,#643);
#562=AXIS2_PLACEMENT_3D('',#807,#644,#645);
#563=AXIS2_PLACEMENT_3D('',#808,#646,#647);
#564=AXIS2_PLACEMENT_3D('',#810,#648,#649);
#565=AXIS2_PLACEMENT_3D('',#813,#651,#652);
#566=AXIS2_PLACEMENT_3D('',#814,#653,#654);
#567=AXIS2_PLACEMENT_3D('',#815,#655,#656);
#568=AXIS2_PLACEMENT_3D('',#817,#657,#658);
#569=AXIS2_PLACEMENT_3D('',#820,#660,#661);
#570=AXIS2_PLACEMENT_3D('',#821,#662,#663);
#571=AXIS2_PLACEMENT_3D('',#822,#664,#665);
#572=AXIS2_PLACEMENT_3D('',#825,#666,#667);
#573=AXIS2_PLACEMENT_3D('',#829,#669,#670);
#574=AXIS2_PLACEMENT_3D('',#833,#672,#673);
#575=AXIS2_PLACEMENT_3D('',#837,#675,#676);
#576=AXIS2_PLACEMENT_3D('',#839,#678,#679);
#577=AXIS2_PLACEMENT_3D('',#841,#680,#681);
#578=AXIS2_PLACEMENT_3D('',#844,#683,#684);
#579=AXIS2_PLACEMENT_3D('',#845,#685,#686);
#580=AXIS2_PLACEMENT_3D('',#846,#687,#688);
#581=AXIS2_PLACEMENT_3D('',#848,#689,#690);
#582=AXIS2_PLACEMENT_3D('',#851,#692,#693);
#583=AXIS2_PLACEMENT_3D('',#852,#694,#695);
#584=AXIS2_PLACEMENT_3D('',#853,#696,#697);
#585=AXIS2_PLACEMENT_3D('',#855,#698,#699);
#586=AXIS2_PLACEMENT_3D('',#858,#701,#702);
#587=AXIS2_PLACEMENT_3D('',#859,#703,#704);
#588=AXIS2_PLACEMENT_3D('',#860,#705,#706);
#589=AXIS2_PLACEMENT_3D('',#863,#707,#708);
#590=AXIS2_PLACEMENT_3D('',#866,#711,#712);
#591=AXIS2_PLACEMENT_3D('',#870,#715,#716);
#592=AXIS2_PLACEMENT_3D('',#874,#718,#719);
#593=AXIS2_PLACEMENT_3D('',#878,#721,#722);
#594=AXIS2_PLACEMENT_3D('',#881,#724,#725);
#595=AXIS2_PLACEMENT_3D('',#890,#730,#731);
#596=AXIS2_PLACEMENT_3D('',#892,#733,#734);
#597=AXIS2_PLACEMENT_3D('',#894,#736,#737);
#598=AXIS2_PLACEMENT_3D('',#896,#739,#740);
#599=AXIS2_PLACEMENT_3D('',#898,#742,#743);
#600=AXIS2_PLACEMENT_3D('',#900,#745,#746);
#601=AXIS2_PLACEMENT_3D('',#901,#747,#748);
#602=AXIS2_PLACEMENT_3D('',#907,#752,#753);
#603=AXIS2_PLACEMENT_3D('',#911,#756,#757);
#604=AXIS2_PLACEMENT_3D('',#915,#760,#761);
#605=AXIS2_PLACEMENT_3D('',#917,#763,#764);
#606=AXIS2_PLACEMENT_3D('',#918,#765,#766);
#607=AXIS2_PLACEMENT_3D('',#920,#767,#768);
#608=AXIS2_PLACEMENT_3D('',#923,#770,#771);
#609=AXIS2_PLACEMENT_3D('',#924,#772,#773);
#610=AXIS2_PLACEMENT_3D('',#925,#774,#775);
#611=DIRECTION('axis',(0.,0.,1.));
#612=DIRECTION('refdir',(1.,0.,0.));
#613=DIRECTION('center_axis',(1.,0.,0.));
#614=DIRECTION('ref_axis',(0.,-0.70710678118654,-0.707106781186555));
#615=DIRECTION('center_axis',(-0.707106781186548,0.,-0.707106781186547));
#616=DIRECTION('ref_axis',(0.707106781186547,0.,-0.707106781186548));
#617=DIRECTION('',(1.,0.,0.));
#618=DIRECTION('center_axis',(-0.707106781186548,0.,0.707106781186548));
#619=DIRECTION('ref_axis',(-0.707106781186547,0.,-0.707106781186547));
#620=DIRECTION('',(-1.,0.,0.));
#621=DIRECTION('center_axis',(0.,0.,-1.));
#622=DIRECTION('ref_axis',(-0.707106781186555,-0.70710678118654,0.));
#623=DIRECTION('center_axis',(-0.707106781186547,0.,-0.707106781186548));
#624=DIRECTION('ref_axis',(-0.707106781186548,0.,0.707106781186547));
#625=DIRECTION('',(0.,0.,1.));
#626=DIRECTION('',(0.,0.,-1.));
#627=DIRECTION('center_axis',(0.,0.,1.));
#628=DIRECTION('ref_axis',(0.707106781186555,-0.70710678118654,0.));
#629=DIRECTION('center_axis',(0.707106781186548,0.,-0.707106781186547));
#630=DIRECTION('ref_axis',(0.707106781186547,4.9065389333868E-17,0.707106781186548));
#631=DIRECTION('',(0.,0.,1.));
#632=DIRECTION('',(0.,0.,-1.));
#633=DIRECTION('center_axis',(-1.,0.,0.));
#634=DIRECTION('ref_axis',(0.,-0.70710678118654,0.707106781186555));
#635=DIRECTION('',(1.,0.,0.));
#636=DIRECTION('',(-1.,0.,0.));
#637=DIRECTION('center_axis',(0.,0.,-1.));
#638=DIRECTION('ref_axis',(-1.,0.,0.));
#639=DIRECTION('center_axis',(0.,0.,-1.));
#640=DIRECTION('ref_axis',(-1.,0.,0.));
#641=DIRECTION('',(0.,0.,-1.));
#642=DIRECTION('center_axis',(0.,0.,-1.));
#643=DIRECTION('ref_axis',(-1.,0.,0.));
#644=DIRECTION('center_axis',(0.,0.,1.));
#645=DIRECTION('ref_axis',(-1.,0.,0.));
#646=DIRECTION('center_axis',(0.,0.,-1.));
#647=DIRECTION('ref_axis',(-1.,0.,0.));
#648=DIRECTION('center_axis',(0.,0.,-1.));
#649=DIRECTION('ref_axis',(-1.,0.,0.));
#650=DIRECTION('',(0.,0.,-1.));
#651=DIRECTION('center_axis',(0.,0.,-1.));
#652=DIRECTION('ref_axis',(-1.,0.,0.));
#653=DIRECTION('center_axis',(0.,0.,1.));
#654=DIRECTION('ref_axis',(-1.,0.,0.));
#655=DIRECTION('center_axis',(0.,0.,1.));
#656=DIRECTION('ref_axis',(-1.,0.,0.));
#657=DIRECTION('center_axis',(0.,0.,1.));
#658=DIRECTION('ref_axis',(-1.,0.,0.));
#659=DIRECTION('',(0.,0.,-1.));
#660=DIRECTION('center_axis',(0.,0.,-1.));
#661=DIRECTION('ref_axis',(-1.,0.,0.));
#662=DIRECTION('center_axis',(0.,0.,1.));
#663=DIRECTION('ref_axis',(-1.,0.,0.));
#664=DIRECTION('center_axis',(0.,0.,1.));
#665=DIRECTION('ref_axis',(1.,0.,0.));
#666=DIRECTION('center_axis',(0.,0.,1.));
#667=DIRECTION('ref_axis',(-0.707106781186546,0.707106781186549,0.));
#668=DIRECTION('',(-1.,0.,0.));
#669=DIRECTION('center_axis',(0.,0.,1.));
#670=DIRECTION('ref_axis',(0.707106781186548,0.707106781186548,0.));
#671=DIRECTION('',(0.,1.,0.));
#672=DIRECTION('center_axis',(0.,0.,1.));
#673=DIRECTION('ref_axis',(0.707106781186549,-0.707106781186546,0.));
#674=DIRECTION('',(1.,0.,0.));
#675=DIRECTION('center_axis',(0.,0.,1.));
#676=DIRECTION('ref_axis',(-0.707106781186548,-0.707106781186547,0.));
#677=DIRECTION('',(0.,-1.,0.));
#678=DIRECTION('center_axis',(0.,0.,-1.));
#679=DIRECTION('ref_axis',(-1.,0.,0.));
#680=DIRECTION('center_axis',(0.,0.,-1.));
#681=DIRECTION('ref_axis',(-1.,0.,0.));
#682=DIRECTION('',(0.,0.,-1.));
#683=DIRECTION('center_axis',(0.,0.,-1.));
#684=DIRECTION('ref_axis',(-1.,0.,0.));
#685=DIRECTION('center_axis',(0.,0.,1.));
#686=DIRECTION('ref_axis',(-1.,0.,0.));
#687=DIRECTION('center_axis',(0.,0.,1.));
#688=DIRECTION('ref_axis',(-1.,0.,0.));
#689=DIRECTION('center_axis',(0.,0.,1.));
#690=DIRECTION('ref_axis',(-1.,0.,0.));
#691=DIRECTION('',(0.,0.,-1.));
#692=DIRECTION('center_axis',(0.,0.,-1.));
#693=DIRECTION('ref_axis',(-1.,0.,0.));
#694=DIRECTION('center_axis',(0.,0.,1.));
#695=DIRECTION('ref_axis',(-1.,0.,0.));
#696=DIRECTION('center_axis',(0.,0.,1.));
#697=DIRECTION('ref_axis',(-1.,0.,0.));
#698=DIRECTION('center_axis',(0.,0.,1.));
#699=DIRECTION('ref_axis',(-1.,0.,0.));
#700=DIRECTION('',(0.,0.,-1.));
#701=DIRECTION('center_axis',(0.,0.,-1.));
#702=DIRECTION('ref_axis',(-1.,0.,0.));
#703=DIRECTION('center_axis',(0.,0.,1.));
#704=DIRECTION('ref_axis',(-1.,0.,0.));
#705=DIRECTION('center_axis',(0.,0.,1.));
#706=DIRECTION('ref_axis',(-0.707106781186546,0.707106781186549,0.));
#707=DIRECTION('center_axis',(0.,0.,-1.));
#708=DIRECTION('ref_axis',(-0.707106781186546,0.707106781186549,0.));
#709=DIRECTION('',(0.,0.,-1.));
#710=DIRECTION('',(0.,0.,1.));
#711=DIRECTION('center_axis',(0.,1.,0.));
#712=DIRECTION('ref_axis',(-1.,0.,0.));
#713=DIRECTION('',(-1.,0.,0.));
#714=DIRECTION('',(0.,0.,1.));
#715=DIRECTION('center_axis',(0.,0.,1.));
#716=DIRECTION('ref_axis',(1.,0.,0.));
#717=DIRECTION('',(0.,-1.,0.));
#718=DIRECTION('center_axis',(0.,0.,-1.));
#719=DIRECTION('ref_axis',(-0.707106781186548,-0.707106781186547,0.));
#720=DIRECTION('',(1.,0.,0.));
#721=DIRECTION('center_axis',(0.,0.,-1.));
#722=DIRECTION('ref_axis',(0.707106781186549,-0.707106781186546,0.));
#723=DIRECTION('',(0.,1.,0.));
#724=DIRECTION('center_axis',(0.,0.,-1.));
#725=DIRECTION('ref_axis',(0.707106781186548,0.707106781186548,0.));
#726=DIRECTION('',(-1.,0.,0.));
#727=DIRECTION('',(0.,1.,0.));
#728=DIRECTION('',(1.,0.,0.));
#729=DIRECTION('',(0.,-1.,0.));
#730=DIRECTION('center_axis',(0.,0.,1.));
#731=DIRECTION('ref_axis',(0.707106781186548,0.707106781186548,0.));
#732=DIRECTION('',(0.,0.,-1.));
#733=DIRECTION('center_axis',(1.,0.,0.));
#734=DIRECTION('ref_axis',(0.,1.,0.));
#735=DIRECTION('',(0.,0.,1.));
#736=DIRECTION('center_axis',(0.,0.,1.));
#737=DIRECTION('ref_axis',(0.707106781186549,-0.707106781186546,0.));
#738=DIRECTION('',(0.,0.,-1.));
#739=DIRECTION('center_axis',(0.,-1.,0.));
#740=DIRECTION('ref_axis',(1.,0.,0.));
#741=DIRECTION('',(0.,0.,1.));
#742=DIRECTION('center_axis',(0.,0.,1.));
#743=DIRECTION('ref_axis',(-0.707106781186548,-0.707106781186547,0.));
#744=DIRECTION('',(0.,0.,-1.));
#745=DIRECTION('center_axis',(-1.,0.,0.));
#746=DIRECTION('ref_axis',(0.,-1.,0.));
#747=DIRECTION('center_axis',(-1.,0.,0.));
#748=DIRECTION('ref_axis',(0.,-1.,0.));
#749=DIRECTION('',(0.,1.,0.));
#750=DIRECTION('',(0.,0.,1.));
#751=DIRECTION('',(0.,0.,1.));
#752=DIRECTION('center_axis',(0.,-1.,0.));
#753=DIRECTION('ref_axis',(1.,0.,0.));
#754=DIRECTION('',(-1.,0.,0.));
#755=DIRECTION('',(0.,0.,1.));
#756=DIRECTION('center_axis',(1.,0.,0.));
#757=DIRECTION('ref_axis',(0.,1.,0.));
#758=DIRECTION('',(0.,-1.,0.));
#759=DIRECTION('',(0.,0.,1.));
#760=DIRECTION('center_axis',(0.,1.,0.));
#761=DIRECTION('ref_axis',(-1.,0.,0.));
#762=DIRECTION('',(1.,0.,0.));
#763=DIRECTION('center_axis',(0.,0.,1.));
#764=DIRECTION('ref_axis',(1.,0.,0.));
#765=DIRECTION('center_axis',(0.,0.,-1.));
#766=DIRECTION('ref_axis',(-1.,0.,0.));
#767=DIRECTION('center_axis',(0.,0.,-1.));
#768=DIRECTION('ref_axis',(-1.,0.,0.));
#769=DIRECTION('',(0.,0.,1.));
#770=DIRECTION('center_axis',(0.,0.,1.));
#771=DIRECTION('ref_axis',(-1.,0.,0.));
#772=DIRECTION('center_axis',(0.,0.,1.));
#773=DIRECTION('ref_axis',(-1.,0.,0.));
#774=DIRECTION('center_axis',(0.,0.,1.));
#775=DIRECTION('ref_axis',(-1.,0.,0.));
#776=CARTESIAN_POINT('',(0.,0.,0.));
#777=CARTESIAN_POINT('Origin',(3.59999999999999,59.,12.));
#778=CARTESIAN_POINT('',(1.99999999999999,58.,12.));
#779=CARTESIAN_POINT('',(1.99999999999999,60.,12.));
#780=CARTESIAN_POINT('Origin',(1.99999999999999,59.,12.));
#781=CARTESIAN_POINT('',(19.,60.,12.));
#782=CARTESIAN_POINT('',(54.,60.,12.));
#783=CARTESIAN_POINT('',(19.,58.,12.));
#784=CARTESIAN_POINT('Origin',(19.,59.,12.));
#785=CARTESIAN_POINT('',(3.59999999999999,58.,12.));
#786=CARTESIAN_POINT('Origin',(19.,59.,4.5));
#787=CARTESIAN_POINT('',(19.,60.,5.));
#788=CARTESIAN_POINT('',(19.,58.,5.));
#789=CARTESIAN_POINT('Origin',(19.,59.,5.));
#790=CARTESIAN_POINT('',(19.,58.,4.5));
#791=CARTESIAN_POINT('',(19.,60.,3.));
#792=CARTESIAN_POINT('Origin',(1.99999999999999,59.,7.));
#793=CARTESIAN_POINT('',(1.99999999999999,58.,5.));
#794=CARTESIAN_POINT('',(1.99999999999999,60.,5.));
#795=CARTESIAN_POINT('Origin',(1.99999999999999,59.,5.));
#796=CARTESIAN_POINT('',(1.99999999999999,60.,5.5));
#797=CARTESIAN_POINT('',(1.99999999999999,58.,7.));
#798=CARTESIAN_POINT('Origin',(-3.90000000000001,59.,5.));
#799=CARTESIAN_POINT('',(-3.90000000000001,58.,5.));
#800=CARTESIAN_POINT('',(46.5,60.,5.));
#801=CARTESIAN_POINT('Origin',(8.09999999999998,-9.4,6.));
#802=CARTESIAN_POINT('',(10.7,-9.4,6.));
#803=CARTESIAN_POINT('Origin',(8.09999999999998,-9.4,6.));
#804=CARTESIAN_POINT('',(10.7,-9.4,5.));
#805=CARTESIAN_POINT('',(10.7,-9.4,6.));
#806=CARTESIAN_POINT('Origin',(8.09999999999998,-9.4,5.));
#807=CARTESIAN_POINT('Origin',(8.09999999999998,-9.4,5.));
#808=CARTESIAN_POINT('Origin',(64.6,51.6,6.));
#809=CARTESIAN_POINT('',(67.2,51.6,6.));
#810=CARTESIAN_POINT('Origin',(64.6,51.6,6.));
#811=CARTESIAN_POINT('',(67.2,51.6,5.));
#812=CARTESIAN_POINT('',(67.2,51.6,6.));
#813=CARTESIAN_POINT('Origin',(64.6,51.6,5.));
#814=CARTESIAN_POINT('Origin',(64.6,51.6,5.));
#815=CARTESIAN_POINT('Origin',(8.09999999999998,-9.4,3.));
#816=CARTESIAN_POINT('',(11.6,-9.4,6.));
#817=CARTESIAN_POINT('Origin',(8.09999999999998,-9.4,6.));
#818=CARTESIAN_POINT('',(11.6,-9.4,3.));
#819=CARTESIAN_POINT('',(11.6,-9.4,3.));
#820=CARTESIAN_POINT('Origin',(8.09999999999998,-9.4,3.));
#821=CARTESIAN_POINT('Origin',(8.00000011920929,-9.50000014156103,6.));
#822=CARTESIAN_POINT('Origin',(38.6,15.1,0.));
#823=CARTESIAN_POINT('',(-9.8,60.,0.));
#824=CARTESIAN_POINT('',(-12.8,57.,0.));
#825=CARTESIAN_POINT('Origin',(-9.80000000000001,57.,0.));
#826=CARTESIAN_POINT('',(87.,60.,0.));
#827=CARTESIAN_POINT('',(90.,60.,0.));
#828=CARTESIAN_POINT('',(90.,57.,0.));
#829=CARTESIAN_POINT('Origin',(87.,57.,0.));
#830=CARTESIAN_POINT('',(90.,-26.8,0.));
#831=CARTESIAN_POINT('',(90.,-29.8,0.));
#832=CARTESIAN_POINT('',(87.,-29.8,0.));
#833=CARTESIAN_POINT('Origin',(87.,-26.8,0.));
#834=CARTESIAN_POINT('',(-9.80000000000001,-29.8,0.));
#835=CARTESIAN_POINT('',(-12.8,-29.8,0.));
#836=CARTESIAN_POINT('',(-12.8,-26.8,0.));
#837=CARTESIAN_POINT('Origin',(-9.80000000000001,-26.8,0.));
#838=CARTESIAN_POINT('',(-12.8,60.,0.));
#839=CARTESIAN_POINT('Origin',(70.1,-17.9,6.));
#840=CARTESIAN_POINT('',(72.7,-17.9,6.));
#841=CARTESIAN_POINT('Origin',(70.1,-17.9,6.));
#842=CARTESIAN_POINT('',(72.7,-17.9,5.));
#843=CARTESIAN_POINT('',(72.7,-17.9,6.));
#844=CARTESIAN_POINT('Origin',(70.1,-17.9,5.));
#845=CARTESIAN_POINT('Origin',(70.1,-17.9,5.));
#846=CARTESIAN_POINT('Origin',(70.1,-17.9,3.));
#847=CARTESIAN_POINT('',(73.1,-17.9,6.));
#848=CARTESIAN_POINT('Origin',(70.1,-17.9,6.));
#849=CARTESIAN_POINT('',(73.1,-17.9,3.));
#850=CARTESIAN_POINT('',(73.1,-17.9,3.));
#851=CARTESIAN_POINT('Origin',(70.1,-17.9,3.));
#852=CARTESIAN_POINT('Origin',(70.1,-17.9,6.));
#853=CARTESIAN_POINT('Origin',(64.6,51.6,3.));
#854=CARTESIAN_POINT('',(67.6,51.6,6.));
#855=CARTESIAN_POINT('Origin',(64.6,51.6,6.));
#856=CARTESIAN_POINT('',(67.6,51.6,3.));
#857=CARTESIAN_POINT('',(67.6,51.6,3.));
#858=CARTESIAN_POINT('Origin',(64.6,51.6,3.));
#859=CARTESIAN_POINT('Origin',(64.6,51.6,6.));
#860=CARTESIAN_POINT('Origin',(-9.80000000000001,57.,0.));
#861=CARTESIAN_POINT('',(-12.8,57.,16.));
#862=CARTESIAN_POINT('',(-9.8,60.,16.));
#863=CARTESIAN_POINT('Origin',(-9.80000000000001,57.,16.));
#864=CARTESIAN_POINT('',(-9.80000000000001,60.,0.));
#865=CARTESIAN_POINT('',(-12.8,57.,0.));
#866=CARTESIAN_POINT('Origin',(90.,60.,0.));
#867=CARTESIAN_POINT('',(87.,60.,16.));
#868=CARTESIAN_POINT('',(88.,60.,16.));
#869=CARTESIAN_POINT('',(87.,60.,0.));
#870=CARTESIAN_POINT('Origin',(38.6,15.1,16.));
#871=CARTESIAN_POINT('',(-12.8,-26.8,16.));
#872=CARTESIAN_POINT('',(-12.8,-29.8,16.));
#873=CARTESIAN_POINT('',(-9.8,-29.8,16.));
#874=CARTESIAN_POINT('Origin',(-9.80000000000001,-26.8,16.));
#875=CARTESIAN_POINT('',(87.,-29.8,16.));
#876=CARTESIAN_POINT('',(90.,-29.8,16.));
#877=CARTESIAN_POINT('',(90.,-26.8,16.));
#878=CARTESIAN_POINT('Origin',(87.,-26.8,16.));
#879=CARTESIAN_POINT('',(90.,57.,16.));
#880=CARTESIAN_POINT('',(90.,60.,16.));
#881=CARTESIAN_POINT('Origin',(87.,57.,16.));
#882=CARTESIAN_POINT('',(88.,-27.8,16.));
#883=CARTESIAN_POINT('',(-10.8,-27.8,16.));
#884=CARTESIAN_POINT('',(-12.8,-27.8,16.));
#885=CARTESIAN_POINT('',(-10.8,58.,16.));
#886=CARTESIAN_POINT('',(-10.8,60.,16.));
#887=CARTESIAN_POINT('',(88.,58.,16.));
#888=CARTESIAN_POINT('',(90.,58.,16.));
#889=CARTESIAN_POINT('',(88.,-29.8,16.));
#890=CARTESIAN_POINT('Origin',(87.,57.,0.));
#891=CARTESIAN_POINT('',(90.,57.,0.));
#892=CARTESIAN_POINT('Origin',(90.,-29.8,0.));
#893=CARTESIAN_POINT('',(90.,-26.8,0.));
#894=CARTESIAN_POINT('Origin',(87.,-26.8,0.));
#895=CARTESIAN_POINT('',(87.,-29.8,0.));
#896=CARTESIAN_POINT('Origin',(-12.8,-29.8,0.));
#897=CARTESIAN_POINT('',(-9.80000000000001,-29.8,0.));
#898=CARTESIAN_POINT('Origin',(-9.80000000000001,-26.8,0.));
#899=CARTESIAN_POINT('',(-12.8,-26.8,0.));
#900=CARTESIAN_POINT('Origin',(-12.8,60.,0.));
#901=CARTESIAN_POINT('Origin',(88.,58.,3.));
#902=CARTESIAN_POINT('',(88.,-27.8,3.));
#903=CARTESIAN_POINT('',(88.,58.,3.));
#904=CARTESIAN_POINT('',(88.,36.55,3.));
#905=CARTESIAN_POINT('',(88.,-27.8,3.));
#906=CARTESIAN_POINT('',(88.,58.,3.));
#907=CARTESIAN_POINT('Origin',(-10.8,58.,3.));
#908=CARTESIAN_POINT('',(-10.8,58.,3.));
#909=CARTESIAN_POINT('',(13.9,58.,3.));
#910=CARTESIAN_POINT('',(-10.8,58.,3.));
#911=CARTESIAN_POINT('Origin',(-10.8,-27.8,3.));
#912=CARTESIAN_POINT('',(-10.8,-27.8,3.));
#913=CARTESIAN_POINT('',(-10.8,-6.35000000000001,3.));
#914=CARTESIAN_POINT('',(-10.8,-27.8,3.));
#915=CARTESIAN_POINT('Origin',(88.,-27.8,3.));
#916=CARTESIAN_POINT('',(63.3,-27.8,3.));
#917=CARTESIAN_POINT('Origin',(38.6,15.1,3.));
#918=CARTESIAN_POINT('Origin',(8.09999999999998,-9.4,3.));
#919=CARTESIAN_POINT('',(10.7,-9.4,2.));
#920=CARTESIAN_POINT('Origin',(8.09999999999998,-9.4,2.));
#921=CARTESIAN_POINT('',(10.7,-9.4,3.));
#922=CARTESIAN_POINT('',(10.7,-9.4,3.));
#923=CARTESIAN_POINT('Origin',(8.09999999999998,-9.4,3.));
#924=CARTESIAN_POINT('Origin',(8.09999999999998,-9.4,3.));
#925=CARTESIAN_POINT('Origin',(8.09999999999998,-9.4,2.));
#926=UNCERTAINTY_MEASURE_WITH_UNIT(LENGTH_MEASURE(0.01),#930,
'DISTANCE_ACCURACY_VALUE',
'Maximum model space distance between geometric entities at asserted c
onnectivities');
#927=UNCERTAINTY_MEASURE_WITH_UNIT(LENGTH_MEASURE(0.01),#930,
'DISTANCE_ACCURACY_VALUE',
'Maximum model space distance between geometric entities at asserted c
onnectivities');
#928=(
GEOMETRIC_REPRESENTATION_CONTEXT(3)
GLOBAL_UNCERTAINTY_ASSIGNED_CONTEXT((#926))
GLOBAL_UNIT_ASSIGNED_CONTEXT((#930,#932,#933))
REPRESENTATION_CONTEXT('','3D')
);
#929=(
GEOMETRIC_REPRESENTATION_CONTEXT(3)
GLOBAL_UNCERTAINTY_ASSIGNED_CONTEXT((#927))
GLOBAL_UNIT_ASSIGNED_CONTEXT((#930,#932,#933))
REPRESENTATION_CONTEXT('','3D')
);
#930=(
LENGTH_UNIT()
NAMED_UNIT(*)
SI_UNIT(.MILLI.,.METRE.)
);
#931=(
LENGTH_UNIT()
NAMED_UNIT(*)
SI_UNIT($,.METRE.)
);
#932=(
NAMED_UNIT(*)
PLANE_ANGLE_UNIT()
SI_UNIT($,.RADIAN.)
);
#933=(
NAMED_UNIT(*)
SI_UNIT($,.STERADIAN.)
SOLID_ANGLE_UNIT()
);
#934=SHAPE_DEFINITION_REPRESENTATION(#935,#936);
#935=PRODUCT_DEFINITION_SHAPE('',$,#938);
#936=SHAPE_REPRESENTATION('',(#550),#928);
#937=PRODUCT_DEFINITION_CONTEXT('part definition',#942,'design');
#938=PRODUCT_DEFINITION('2026-06-20-14-39-24-865','bottom case',#939,#937);
#939=PRODUCT_DEFINITION_FORMATION('',$,#944);
#940=PRODUCT_RELATED_PRODUCT_CATEGORY('bottom case','bottom case',(#944));
#941=APPLICATION_PROTOCOL_DEFINITION('international standard',
'automotive_design',2009,#942);
#942=APPLICATION_CONTEXT(
'Core Data for Automotive Mechanical Design Process');
#943=PRODUCT_CONTEXT('part definition',#942,'mechanical');
#944=PRODUCT('2026-06-20-14-39-24-865','bottom case',$,(#943));
#945=PRESENTATION_STYLE_ASSIGNMENT((#946));
#946=SURFACE_STYLE_USAGE(.BOTH.,#947);
#947=SURFACE_SIDE_STYLE('',(#948));
#948=SURFACE_STYLE_FILL_AREA(#949);
#949=FILL_AREA_STYLE('Steel - Satin',(#950));
#950=FILL_AREA_STYLE_COLOUR('Steel - Satin',#951);
#951=COLOUR_RGB('Steel - Satin',0.627450980392157,0.627450980392157,0.627450980392157);
ENDSEC;
END-ISO-10303-21;
