ISO-10303-21;
HEADER;
/* Generated by software containing ST-Developer
 * from STEP Tools, Inc. (www.steptools.com) 
 */

FILE_DESCRIPTION(
/* description */ (''),
/* implementation_level */ '2;1');

FILE_NAME(
/* name */ 'Case_.step',
/* time_stamp */ '2026-06-21T11:49:05+05:30',
/* author */ (''),
/* organization */ (''),
/* preprocessor_version */ 'ST-DEVELOPER v20.1',
/* originating_system */ 'Autodesk Translation Framework v15.8.0.0',
/* authorisation */ '');

FILE_SCHEMA (('AUTOMOTIVE_DESIGN { 1 0 10303 214 3 1 1 }'));
ENDSEC;

DATA;
#10=MECHANICAL_DESIGN_GEOMETRIC_PRESENTATION_REPRESENTATION('',(#13),#871);
#11=SHAPE_REPRESENTATION_RELATIONSHIP('SRR','None',#878,#12);
#12=ADVANCED_BREP_SHAPE_REPRESENTATION('',(#14),#870);
#13=STYLED_ITEM('',(#887),#14);
#14=MANIFOLD_SOLID_BREP('Body1',#511);
#15=FACE_BOUND('',#78,.T.);
#16=FACE_BOUND('',#80,.T.);
#17=FACE_BOUND('',#99,.T.);
#18=FACE_BOUND('',#102,.T.);
#19=FACE_BOUND('',#105,.T.);
#20=FACE_BOUND('',#107,.T.);
#21=FACE_BOUND('',#112,.T.);
#22=FACE_BOUND('',#113,.T.);
#23=FACE_BOUND('',#114,.T.);
#24=PLANE('',#528);
#25=PLANE('',#529);
#26=PLANE('',#535);
#27=PLANE('',#538);
#28=PLANE('',#541);
#29=PLANE('',#542);
#30=PLANE('',#543);
#31=PLANE('',#544);
#32=PLANE('',#545);
#33=PLANE('',#549);
#34=PLANE('',#553);
#35=PLANE('',#557);
#36=PLANE('',#561);
#37=PLANE('',#565);
#38=PLANE('',#569);
#39=PLANE('',#570);
#40=PLANE('',#571);
#41=PLANE('',#572);
#42=PLANE('',#573);
#43=PLANE('',#574);
#44=PLANE('',#575);
#45=FACE_OUTER_BOUND('',#76,.T.);
#46=FACE_OUTER_BOUND('',#77,.T.);
#47=FACE_OUTER_BOUND('',#79,.T.);
#48=FACE_OUTER_BOUND('',#81,.T.);
#49=FACE_OUTER_BOUND('',#82,.T.);
#50=FACE_OUTER_BOUND('',#83,.T.);
#51=FACE_OUTER_BOUND('',#84,.T.);
#52=FACE_OUTER_BOUND('',#85,.T.);
#53=FACE_OUTER_BOUND('',#86,.T.);
#54=FACE_OUTER_BOUND('',#87,.T.);
#55=FACE_OUTER_BOUND('',#88,.T.);
#56=FACE_OUTER_BOUND('',#89,.T.);
#57=FACE_OUTER_BOUND('',#90,.T.);
#58=FACE_OUTER_BOUND('',#91,.T.);
#59=FACE_OUTER_BOUND('',#92,.T.);
#60=FACE_OUTER_BOUND('',#93,.T.);
#61=FACE_OUTER_BOUND('',#94,.T.);
#62=FACE_OUTER_BOUND('',#95,.T.);
#63=FACE_OUTER_BOUND('',#96,.T.);
#64=FACE_OUTER_BOUND('',#97,.T.);
#65=FACE_OUTER_BOUND('',#98,.T.);
#66=FACE_OUTER_BOUND('',#100,.T.);
#67=FACE_OUTER_BOUND('',#101,.T.);
#68=FACE_OUTER_BOUND('',#103,.T.);
#69=FACE_OUTER_BOUND('',#104,.T.);
#70=FACE_OUTER_BOUND('',#106,.T.);
#71=FACE_OUTER_BOUND('',#108,.T.);
#72=FACE_OUTER_BOUND('',#109,.T.);
#73=FACE_OUTER_BOUND('',#110,.T.);
#74=FACE_OUTER_BOUND('',#111,.T.);
#75=FACE_OUTER_BOUND('',#115,.T.);
#76=EDGE_LOOP('',(#338,#339,#340,#341));
#77=EDGE_LOOP('',(#342,#343,#344,#345));
#78=EDGE_LOOP('',(#346,#347,#348,#349));
#79=EDGE_LOOP('',(#350,#351,#352,#353,#354,#355,#356,#357));
#80=EDGE_LOOP('',(#358,#359,#360,#361));
#81=EDGE_LOOP('',(#362,#363,#364,#365));
#82=EDGE_LOOP('',(#366,#367,#368,#369));
#83=EDGE_LOOP('',(#370,#371,#372,#373));
#84=EDGE_LOOP('',(#374,#375,#376,#377));
#85=EDGE_LOOP('',(#378,#379,#380,#381));
#86=EDGE_LOOP('',(#382,#383,#384,#385));
#87=EDGE_LOOP('',(#386,#387,#388,#389));
#88=EDGE_LOOP('',(#390,#391,#392,#393));
#89=EDGE_LOOP('',(#394,#395,#396,#397));
#90=EDGE_LOOP('',(#398,#399,#400,#401));
#91=EDGE_LOOP('',(#402,#403,#404,#405));
#92=EDGE_LOOP('',(#406));
#93=EDGE_LOOP('',(#407,#408,#409,#410));
#94=EDGE_LOOP('',(#411));
#95=EDGE_LOOP('',(#412,#413,#414,#415));
#96=EDGE_LOOP('',(#416));
#97=EDGE_LOOP('',(#417,#418,#419,#420));
#98=EDGE_LOOP('',(#421));
#99=EDGE_LOOP('',(#422));
#100=EDGE_LOOP('',(#423,#424,#425,#426));
#101=EDGE_LOOP('',(#427));
#102=EDGE_LOOP('',(#428));
#103=EDGE_LOOP('',(#429,#430,#431,#432));
#104=EDGE_LOOP('',(#433));
#105=EDGE_LOOP('',(#434));
#106=EDGE_LOOP('',(#435,#436,#437,#438));
#107=EDGE_LOOP('',(#439,#440,#441,#442));
#108=EDGE_LOOP('',(#443,#444,#445,#446));
#109=EDGE_LOOP('',(#447,#448,#449,#450));
#110=EDGE_LOOP('',(#451,#452,#453,#454));
#111=EDGE_LOOP('',(#455,#456,#457,#458));
#112=EDGE_LOOP('',(#459));
#113=EDGE_LOOP('',(#460));
#114=EDGE_LOOP('',(#461));
#115=EDGE_LOOP('',(#462,#463,#464,#465,#466,#467,#468,#469));
#116=LINE('',#732,#162);
#117=LINE('',#735,#163);
#118=LINE('',#738,#164);
#119=LINE('',#740,#165);
#120=LINE('',#741,#166);
#121=LINE('',#744,#167);
#122=LINE('',#746,#168);
#123=LINE('',#748,#169);
#124=LINE('',#749,#170);
#125=LINE('',#752,#171);
#126=LINE('',#756,#172);
#127=LINE('',#760,#173);
#128=LINE('',#764,#174);
#129=LINE('',#766,#175);
#130=LINE('',#768,#176);
#131=LINE('',#769,#177);
#132=LINE('',#772,#178);
#133=LINE('',#776,#179);
#134=LINE('',#777,#180);
#135=LINE('',#780,#181);
#136=LINE('',#784,#182);
#137=LINE('',#785,#183);
#138=LINE('',#788,#184);
#139=LINE('',#791,#185);
#140=LINE('',#794,#186);
#141=LINE('',#796,#187);
#142=LINE('',#797,#188);
#143=LINE('',#800,#189);
#144=LINE('',#801,#190);
#145=LINE('',#804,#191);
#146=LINE('',#805,#192);
#147=LINE('',#807,#193);
#148=LINE('',#812,#194);
#149=LINE('',#819,#195);
#150=LINE('',#826,#196);
#151=LINE('',#833,#197);
#152=LINE('',#840,#198);
#153=LINE('',#847,#199);
#154=LINE('',#853,#200);
#155=LINE('',#854,#201);
#156=LINE('',#855,#202);
#157=LINE('',#858,#203);
#158=LINE('',#859,#204);
#159=LINE('',#862,#205);
#160=LINE('',#863,#206);
#161=LINE('',#865,#207);
#162=VECTOR('',#582,10.);
#163=VECTOR('',#585,10.);
#164=VECTOR('',#588,10.);
#165=VECTOR('',#589,10.);
#166=VECTOR('',#590,10.);
#167=VECTOR('',#591,10.);
#168=VECTOR('',#592,10.);
#169=VECTOR('',#593,10.);
#170=VECTOR('',#594,10.);
#171=VECTOR('',#597,10.);
#172=VECTOR('',#600,10.);
#173=VECTOR('',#603,10.);
#174=VECTOR('',#606,10.);
#175=VECTOR('',#607,10.);
#176=VECTOR('',#608,10.);
#177=VECTOR('',#609,10.);
#178=VECTOR('',#612,10.);
#179=VECTOR('',#617,10.);
#180=VECTOR('',#618,10.);
#181=VECTOR('',#621,10.);
#182=VECTOR('',#626,10.);
#183=VECTOR('',#627,10.);
#184=VECTOR('',#630,10.);
#185=VECTOR('',#635,10.);
#186=VECTOR('',#638,10.);
#187=VECTOR('',#639,10.);
#188=VECTOR('',#640,10.);
#189=VECTOR('',#643,10.);
#190=VECTOR('',#644,10.);
#191=VECTOR('',#647,10.);
#192=VECTOR('',#648,10.);
#193=VECTOR('',#651,10.);
#194=VECTOR('',#656,2.7);
#195=VECTOR('',#665,2.7);
#196=VECTOR('',#674,2.7);
#197=VECTOR('',#683,3.5);
#198=VECTOR('',#692,3.50000000000001);
#199=VECTOR('',#701,3.5);
#200=VECTOR('',#708,10.);
#201=VECTOR('',#709,10.);
#202=VECTOR('',#710,10.);
#203=VECTOR('',#713,10.);
#204=VECTOR('',#714,10.);
#205=VECTOR('',#717,10.);
#206=VECTOR('',#718,10.);
#207=VECTOR('',#721,10.);
#208=CIRCLE('',#526,3.);
#209=CIRCLE('',#527,3.);
#210=CIRCLE('',#530,3.);
#211=CIRCLE('',#531,3.);
#212=CIRCLE('',#532,3.);
#213=CIRCLE('',#534,3.);
#214=CIRCLE('',#537,3.);
#215=CIRCLE('',#540,3.);
#216=CIRCLE('',#547,2.7);
#217=CIRCLE('',#548,2.7);
#218=CIRCLE('',#551,2.7);
#219=CIRCLE('',#552,2.7);
#220=CIRCLE('',#555,2.7);
#221=CIRCLE('',#556,2.7);
#222=CIRCLE('',#559,3.5);
#223=CIRCLE('',#560,3.5);
#224=CIRCLE('',#563,3.50000000000001);
#225=CIRCLE('',#564,3.50000000000001);
#226=CIRCLE('',#567,3.5);
#227=CIRCLE('',#568,3.5);
#228=VERTEX_POINT('',#728);
#229=VERTEX_POINT('',#729);
#230=VERTEX_POINT('',#731);
#231=VERTEX_POINT('',#733);
#232=VERTEX_POINT('',#737);
#233=VERTEX_POINT('',#739);
#234=VERTEX_POINT('',#742);
#235=VERTEX_POINT('',#743);
#236=VERTEX_POINT('',#745);
#237=VERTEX_POINT('',#747);
#238=VERTEX_POINT('',#751);
#239=VERTEX_POINT('',#753);
#240=VERTEX_POINT('',#755);
#241=VERTEX_POINT('',#757);
#242=VERTEX_POINT('',#759);
#243=VERTEX_POINT('',#762);
#244=VERTEX_POINT('',#763);
#245=VERTEX_POINT('',#765);
#246=VERTEX_POINT('',#767);
#247=VERTEX_POINT('',#771);
#248=VERTEX_POINT('',#775);
#249=VERTEX_POINT('',#779);
#250=VERTEX_POINT('',#783);
#251=VERTEX_POINT('',#787);
#252=VERTEX_POINT('',#793);
#253=VERTEX_POINT('',#795);
#254=VERTEX_POINT('',#799);
#255=VERTEX_POINT('',#803);
#256=VERTEX_POINT('',#809);
#257=VERTEX_POINT('',#811);
#258=VERTEX_POINT('',#816);
#259=VERTEX_POINT('',#818);
#260=VERTEX_POINT('',#823);
#261=VERTEX_POINT('',#825);
#262=VERTEX_POINT('',#830);
#263=VERTEX_POINT('',#832);
#264=VERTEX_POINT('',#837);
#265=VERTEX_POINT('',#839);
#266=VERTEX_POINT('',#844);
#267=VERTEX_POINT('',#846);
#268=VERTEX_POINT('',#851);
#269=VERTEX_POINT('',#852);
#270=VERTEX_POINT('',#857);
#271=VERTEX_POINT('',#861);
#272=EDGE_CURVE('',#228,#229,#208,.T.);
#273=EDGE_CURVE('',#229,#230,#116,.T.);
#274=EDGE_CURVE('',#230,#231,#209,.T.);
#275=EDGE_CURVE('',#231,#228,#117,.T.);
#276=EDGE_CURVE('',#232,#229,#118,.T.);
#277=EDGE_CURVE('',#233,#232,#119,.T.);
#278=EDGE_CURVE('',#233,#230,#120,.T.);
#279=EDGE_CURVE('',#234,#235,#121,.T.);
#280=EDGE_CURVE('',#235,#236,#122,.T.);
#281=EDGE_CURVE('',#236,#237,#123,.T.);
#282=EDGE_CURVE('',#237,#234,#124,.T.);
#283=EDGE_CURVE('',#228,#238,#125,.T.);
#284=EDGE_CURVE('',#239,#238,#210,.T.);
#285=EDGE_CURVE('',#239,#240,#126,.T.);
#286=EDGE_CURVE('',#241,#240,#211,.T.);
#287=EDGE_CURVE('',#241,#242,#127,.T.);
#288=EDGE_CURVE('',#232,#242,#212,.T.);
#289=EDGE_CURVE('',#243,#244,#128,.T.);
#290=EDGE_CURVE('',#244,#245,#129,.T.);
#291=EDGE_CURVE('',#245,#246,#130,.T.);
#292=EDGE_CURVE('',#246,#243,#131,.T.);
#293=EDGE_CURVE('',#242,#247,#132,.T.);
#294=EDGE_CURVE('',#247,#233,#213,.T.);
#295=EDGE_CURVE('',#248,#241,#133,.T.);
#296=EDGE_CURVE('',#248,#247,#134,.T.);
#297=EDGE_CURVE('',#240,#249,#135,.T.);
#298=EDGE_CURVE('',#249,#248,#214,.T.);
#299=EDGE_CURVE('',#250,#239,#136,.T.);
#300=EDGE_CURVE('',#250,#249,#137,.T.);
#301=EDGE_CURVE('',#238,#251,#138,.T.);
#302=EDGE_CURVE('',#251,#250,#215,.T.);
#303=EDGE_CURVE('',#231,#251,#139,.T.);
#304=EDGE_CURVE('',#234,#252,#140,.T.);
#305=EDGE_CURVE('',#253,#252,#141,.T.);
#306=EDGE_CURVE('',#235,#253,#142,.T.);
#307=EDGE_CURVE('',#237,#254,#143,.T.);
#308=EDGE_CURVE('',#252,#254,#144,.T.);
#309=EDGE_CURVE('',#236,#255,#145,.T.);
#310=EDGE_CURVE('',#254,#255,#146,.T.);
#311=EDGE_CURVE('',#255,#253,#147,.T.);
#312=EDGE_CURVE('',#256,#256,#216,.T.);
#313=EDGE_CURVE('',#256,#257,#148,.T.);
#314=EDGE_CURVE('',#257,#257,#217,.T.);
#315=EDGE_CURVE('',#258,#258,#218,.T.);
#316=EDGE_CURVE('',#258,#259,#149,.T.);
#317=EDGE_CURVE('',#259,#259,#219,.T.);
#318=EDGE_CURVE('',#260,#260,#220,.T.);
#319=EDGE_CURVE('',#260,#261,#150,.T.);
#320=EDGE_CURVE('',#261,#261,#221,.T.);
#321=EDGE_CURVE('',#262,#262,#222,.T.);
#322=EDGE_CURVE('',#262,#263,#151,.T.);
#323=EDGE_CURVE('',#263,#263,#223,.T.);
#324=EDGE_CURVE('',#264,#264,#224,.T.);
#325=EDGE_CURVE('',#264,#265,#152,.T.);
#326=EDGE_CURVE('',#265,#265,#225,.T.);
#327=EDGE_CURVE('',#266,#266,#226,.T.);
#328=EDGE_CURVE('',#266,#267,#153,.T.);
#329=EDGE_CURVE('',#267,#267,#227,.T.);
#330=EDGE_CURVE('',#268,#269,#154,.T.);
#331=EDGE_CURVE('',#268,#243,#155,.T.);
#332=EDGE_CURVE('',#269,#246,#156,.T.);
#333=EDGE_CURVE('',#269,#270,#157,.T.);
#334=EDGE_CURVE('',#270,#245,#158,.T.);
#335=EDGE_CURVE('',#270,#271,#159,.T.);
#336=EDGE_CURVE('',#271,#244,#160,.T.);
#337=EDGE_CURVE('',#271,#268,#161,.T.);
#338=ORIENTED_EDGE('',*,*,#272,.T.);
#339=ORIENTED_EDGE('',*,*,#273,.T.);
#340=ORIENTED_EDGE('',*,*,#274,.T.);
#341=ORIENTED_EDGE('',*,*,#275,.T.);
#342=ORIENTED_EDGE('',*,*,#273,.F.);
#343=ORIENTED_EDGE('',*,*,#276,.F.);
#344=ORIENTED_EDGE('',*,*,#277,.F.);
#345=ORIENTED_EDGE('',*,*,#278,.T.);
#346=ORIENTED_EDGE('',*,*,#279,.T.);
#347=ORIENTED_EDGE('',*,*,#280,.T.);
#348=ORIENTED_EDGE('',*,*,#281,.T.);
#349=ORIENTED_EDGE('',*,*,#282,.T.);
#350=ORIENTED_EDGE('',*,*,#272,.F.);
#351=ORIENTED_EDGE('',*,*,#283,.T.);
#352=ORIENTED_EDGE('',*,*,#284,.F.);
#353=ORIENTED_EDGE('',*,*,#285,.T.);
#354=ORIENTED_EDGE('',*,*,#286,.F.);
#355=ORIENTED_EDGE('',*,*,#287,.T.);
#356=ORIENTED_EDGE('',*,*,#288,.F.);
#357=ORIENTED_EDGE('',*,*,#276,.T.);
#358=ORIENTED_EDGE('',*,*,#289,.T.);
#359=ORIENTED_EDGE('',*,*,#290,.T.);
#360=ORIENTED_EDGE('',*,*,#291,.T.);
#361=ORIENTED_EDGE('',*,*,#292,.T.);
#362=ORIENTED_EDGE('',*,*,#288,.T.);
#363=ORIENTED_EDGE('',*,*,#293,.T.);
#364=ORIENTED_EDGE('',*,*,#294,.T.);
#365=ORIENTED_EDGE('',*,*,#277,.T.);
#366=ORIENTED_EDGE('',*,*,#293,.F.);
#367=ORIENTED_EDGE('',*,*,#287,.F.);
#368=ORIENTED_EDGE('',*,*,#295,.F.);
#369=ORIENTED_EDGE('',*,*,#296,.T.);
#370=ORIENTED_EDGE('',*,*,#286,.T.);
#371=ORIENTED_EDGE('',*,*,#297,.T.);
#372=ORIENTED_EDGE('',*,*,#298,.T.);
#373=ORIENTED_EDGE('',*,*,#295,.T.);
#374=ORIENTED_EDGE('',*,*,#297,.F.);
#375=ORIENTED_EDGE('',*,*,#285,.F.);
#376=ORIENTED_EDGE('',*,*,#299,.F.);
#377=ORIENTED_EDGE('',*,*,#300,.T.);
#378=ORIENTED_EDGE('',*,*,#284,.T.);
#379=ORIENTED_EDGE('',*,*,#301,.T.);
#380=ORIENTED_EDGE('',*,*,#302,.T.);
#381=ORIENTED_EDGE('',*,*,#299,.T.);
#382=ORIENTED_EDGE('',*,*,#275,.F.);
#383=ORIENTED_EDGE('',*,*,#303,.T.);
#384=ORIENTED_EDGE('',*,*,#301,.F.);
#385=ORIENTED_EDGE('',*,*,#283,.F.);
#386=ORIENTED_EDGE('',*,*,#279,.F.);
#387=ORIENTED_EDGE('',*,*,#304,.T.);
#388=ORIENTED_EDGE('',*,*,#305,.F.);
#389=ORIENTED_EDGE('',*,*,#306,.F.);
#390=ORIENTED_EDGE('',*,*,#282,.F.);
#391=ORIENTED_EDGE('',*,*,#307,.T.);
#392=ORIENTED_EDGE('',*,*,#308,.F.);
#393=ORIENTED_EDGE('',*,*,#304,.F.);
#394=ORIENTED_EDGE('',*,*,#281,.F.);
#395=ORIENTED_EDGE('',*,*,#309,.T.);
#396=ORIENTED_EDGE('',*,*,#310,.F.);
#397=ORIENTED_EDGE('',*,*,#307,.F.);
#398=ORIENTED_EDGE('',*,*,#280,.F.);
#399=ORIENTED_EDGE('',*,*,#306,.T.);
#400=ORIENTED_EDGE('',*,*,#311,.F.);
#401=ORIENTED_EDGE('',*,*,#309,.F.);
#402=ORIENTED_EDGE('',*,*,#312,.F.);
#403=ORIENTED_EDGE('',*,*,#313,.T.);
#404=ORIENTED_EDGE('',*,*,#314,.T.);
#405=ORIENTED_EDGE('',*,*,#313,.F.);
#406=ORIENTED_EDGE('',*,*,#314,.F.);
#407=ORIENTED_EDGE('',*,*,#315,.F.);
#408=ORIENTED_EDGE('',*,*,#316,.T.);
#409=ORIENTED_EDGE('',*,*,#317,.T.);
#410=ORIENTED_EDGE('',*,*,#316,.F.);
#411=ORIENTED_EDGE('',*,*,#317,.F.);
#412=ORIENTED_EDGE('',*,*,#318,.F.);
#413=ORIENTED_EDGE('',*,*,#319,.T.);
#414=ORIENTED_EDGE('',*,*,#320,.T.);
#415=ORIENTED_EDGE('',*,*,#319,.F.);
#416=ORIENTED_EDGE('',*,*,#320,.F.);
#417=ORIENTED_EDGE('',*,*,#321,.F.);
#418=ORIENTED_EDGE('',*,*,#322,.T.);
#419=ORIENTED_EDGE('',*,*,#323,.F.);
#420=ORIENTED_EDGE('',*,*,#322,.F.);
#421=ORIENTED_EDGE('',*,*,#321,.T.);
#422=ORIENTED_EDGE('',*,*,#318,.T.);
#423=ORIENTED_EDGE('',*,*,#324,.F.);
#424=ORIENTED_EDGE('',*,*,#325,.T.);
#425=ORIENTED_EDGE('',*,*,#326,.F.);
#426=ORIENTED_EDGE('',*,*,#325,.F.);
#427=ORIENTED_EDGE('',*,*,#324,.T.);
#428=ORIENTED_EDGE('',*,*,#312,.T.);
#429=ORIENTED_EDGE('',*,*,#327,.F.);
#430=ORIENTED_EDGE('',*,*,#328,.T.);
#431=ORIENTED_EDGE('',*,*,#329,.F.);
#432=ORIENTED_EDGE('',*,*,#328,.F.);
#433=ORIENTED_EDGE('',*,*,#327,.T.);
#434=ORIENTED_EDGE('',*,*,#315,.T.);
#435=ORIENTED_EDGE('',*,*,#330,.F.);
#436=ORIENTED_EDGE('',*,*,#331,.T.);
#437=ORIENTED_EDGE('',*,*,#292,.F.);
#438=ORIENTED_EDGE('',*,*,#332,.F.);
#439=ORIENTED_EDGE('',*,*,#305,.T.);
#440=ORIENTED_EDGE('',*,*,#308,.T.);
#441=ORIENTED_EDGE('',*,*,#310,.T.);
#442=ORIENTED_EDGE('',*,*,#311,.T.);
#443=ORIENTED_EDGE('',*,*,#333,.F.);
#444=ORIENTED_EDGE('',*,*,#332,.T.);
#445=ORIENTED_EDGE('',*,*,#291,.F.);
#446=ORIENTED_EDGE('',*,*,#334,.F.);
#447=ORIENTED_EDGE('',*,*,#335,.F.);
#448=ORIENTED_EDGE('',*,*,#334,.T.);
#449=ORIENTED_EDGE('',*,*,#290,.F.);
#450=ORIENTED_EDGE('',*,*,#336,.F.);
#451=ORIENTED_EDGE('',*,*,#337,.F.);
#452=ORIENTED_EDGE('',*,*,#336,.T.);
#453=ORIENTED_EDGE('',*,*,#289,.F.);
#454=ORIENTED_EDGE('',*,*,#331,.F.);
#455=ORIENTED_EDGE('',*,*,#330,.T.);
#456=ORIENTED_EDGE('',*,*,#333,.T.);
#457=ORIENTED_EDGE('',*,*,#335,.T.);
#458=ORIENTED_EDGE('',*,*,#337,.T.);
#459=ORIENTED_EDGE('',*,*,#323,.T.);
#460=ORIENTED_EDGE('',*,*,#326,.T.);
#461=ORIENTED_EDGE('',*,*,#329,.T.);
#462=ORIENTED_EDGE('',*,*,#274,.F.);
#463=ORIENTED_EDGE('',*,*,#278,.F.);
#464=ORIENTED_EDGE('',*,*,#294,.F.);
#465=ORIENTED_EDGE('',*,*,#296,.F.);
#466=ORIENTED_EDGE('',*,*,#298,.F.);
#467=ORIENTED_EDGE('',*,*,#300,.F.);
#468=ORIENTED_EDGE('',*,*,#302,.F.);
#469=ORIENTED_EDGE('',*,*,#303,.F.);
#470=CYLINDRICAL_SURFACE('',#525,3.);
#471=CYLINDRICAL_SURFACE('',#533,3.);
#472=CYLINDRICAL_SURFACE('',#536,3.);
#473=CYLINDRICAL_SURFACE('',#539,3.);
#474=CYLINDRICAL_SURFACE('',#546,2.7);
#475=CYLINDRICAL_SURFACE('',#550,2.7);
#476=CYLINDRICAL_SURFACE('',#554,2.7);
#477=CYLINDRICAL_SURFACE('',#558,3.5);
#478=CYLINDRICAL_SURFACE('',#562,3.50000000000001);
#479=CYLINDRICAL_SURFACE('',#566,3.5);
#480=ADVANCED_FACE('',(#45),#470,.T.);
#481=ADVANCED_FACE('',(#46,#15),#24,.T.);
#482=ADVANCED_FACE('',(#47,#16),#25,.T.);
#483=ADVANCED_FACE('',(#48),#471,.T.);
#484=ADVANCED_FACE('',(#49),#26,.T.);
#485=ADVANCED_FACE('',(#50),#472,.T.);
#486=ADVANCED_FACE('',(#51),#27,.T.);
#487=ADVANCED_FACE('',(#52),#473,.T.);
#488=ADVANCED_FACE('',(#53),#28,.T.);
#489=ADVANCED_FACE('',(#54),#29,.F.);
#490=ADVANCED_FACE('',(#55),#30,.F.);
#491=ADVANCED_FACE('',(#56),#31,.F.);
#492=ADVANCED_FACE('',(#57),#32,.F.);
#493=ADVANCED_FACE('',(#58),#474,.F.);
#494=ADVANCED_FACE('',(#59),#33,.T.);
#495=ADVANCED_FACE('',(#60),#475,.F.);
#496=ADVANCED_FACE('',(#61),#34,.T.);
#497=ADVANCED_FACE('',(#62),#476,.F.);
#498=ADVANCED_FACE('',(#63),#35,.T.);
#499=ADVANCED_FACE('',(#64),#477,.T.);
#500=ADVANCED_FACE('',(#65,#17),#36,.T.);
#501=ADVANCED_FACE('',(#66),#478,.T.);
#502=ADVANCED_FACE('',(#67,#18),#37,.T.);
#503=ADVANCED_FACE('',(#68),#479,.T.);
#504=ADVANCED_FACE('',(#69,#19),#38,.T.);
#505=ADVANCED_FACE('',(#70,#20),#39,.T.);
#506=ADVANCED_FACE('',(#71),#40,.T.);
#507=ADVANCED_FACE('',(#72),#41,.T.);
#508=ADVANCED_FACE('',(#73),#42,.T.);
#509=ADVANCED_FACE('',(#74,#21,#22,#23),#43,.T.);
#510=ADVANCED_FACE('',(#75),#44,.F.);
#511=CLOSED_SHELL('',(#480,#481,#482,#483,#484,#485,#486,#487,#488,#489,
#490,#491,#492,#493,#494,#495,#496,#497,#498,#499,#500,#501,#502,#503,#504,
#505,#506,#507,#508,#509,#510));
#512=DERIVED_UNIT_ELEMENT(#514,1.);
#513=DERIVED_UNIT_ELEMENT(#873,-3.);
#514=(
MASS_UNIT()
NAMED_UNIT(*)
SI_UNIT(.KILO.,.GRAM.)
);
#515=DERIVED_UNIT((#512,#513));
#516=MEASURE_REPRESENTATION_ITEM('density measure',
POSITIVE_RATIO_MEASURE(7850.),#515);
#517=PROPERTY_DEFINITION_REPRESENTATION(#522,#519);
#518=PROPERTY_DEFINITION_REPRESENTATION(#523,#520);
#519=REPRESENTATION('material name',(#521),#870);
#520=REPRESENTATION('density',(#516),#870);
#521=DESCRIPTIVE_REPRESENTATION_ITEM('Steel','Steel');
#522=PROPERTY_DEFINITION('material property','material name',#880);
#523=PROPERTY_DEFINITION('material property','density of part',#880);
#524=AXIS2_PLACEMENT_3D('',#726,#576,#577);
#525=AXIS2_PLACEMENT_3D('',#727,#578,#579);
#526=AXIS2_PLACEMENT_3D('',#730,#580,#581);
#527=AXIS2_PLACEMENT_3D('',#734,#583,#584);
#528=AXIS2_PLACEMENT_3D('',#736,#586,#587);
#529=AXIS2_PLACEMENT_3D('',#750,#595,#596);
#530=AXIS2_PLACEMENT_3D('',#754,#598,#599);
#531=AXIS2_PLACEMENT_3D('',#758,#601,#602);
#532=AXIS2_PLACEMENT_3D('',#761,#604,#605);
#533=AXIS2_PLACEMENT_3D('',#770,#610,#611);
#534=AXIS2_PLACEMENT_3D('',#773,#613,#614);
#535=AXIS2_PLACEMENT_3D('',#774,#615,#616);
#536=AXIS2_PLACEMENT_3D('',#778,#619,#620);
#537=AXIS2_PLACEMENT_3D('',#781,#622,#623);
#538=AXIS2_PLACEMENT_3D('',#782,#624,#625);
#539=AXIS2_PLACEMENT_3D('',#786,#628,#629);
#540=AXIS2_PLACEMENT_3D('',#789,#631,#632);
#541=AXIS2_PLACEMENT_3D('',#790,#633,#634);
#542=AXIS2_PLACEMENT_3D('',#792,#636,#637);
#543=AXIS2_PLACEMENT_3D('',#798,#641,#642);
#544=AXIS2_PLACEMENT_3D('',#802,#645,#646);
#545=AXIS2_PLACEMENT_3D('',#806,#649,#650);
#546=AXIS2_PLACEMENT_3D('',#808,#652,#653);
#547=AXIS2_PLACEMENT_3D('',#810,#654,#655);
#548=AXIS2_PLACEMENT_3D('',#813,#657,#658);
#549=AXIS2_PLACEMENT_3D('',#814,#659,#660);
#550=AXIS2_PLACEMENT_3D('',#815,#661,#662);
#551=AXIS2_PLACEMENT_3D('',#817,#663,#664);
#552=AXIS2_PLACEMENT_3D('',#820,#666,#667);
#553=AXIS2_PLACEMENT_3D('',#821,#668,#669);
#554=AXIS2_PLACEMENT_3D('',#822,#670,#671);
#555=AXIS2_PLACEMENT_3D('',#824,#672,#673);
#556=AXIS2_PLACEMENT_3D('',#827,#675,#676);
#557=AXIS2_PLACEMENT_3D('',#828,#677,#678);
#558=AXIS2_PLACEMENT_3D('',#829,#679,#680);
#559=AXIS2_PLACEMENT_3D('',#831,#681,#682);
#560=AXIS2_PLACEMENT_3D('',#834,#684,#685);
#561=AXIS2_PLACEMENT_3D('',#835,#686,#687);
#562=AXIS2_PLACEMENT_3D('',#836,#688,#689);
#563=AXIS2_PLACEMENT_3D('',#838,#690,#691);
#564=AXIS2_PLACEMENT_3D('',#841,#693,#694);
#565=AXIS2_PLACEMENT_3D('',#842,#695,#696);
#566=AXIS2_PLACEMENT_3D('',#843,#697,#698);
#567=AXIS2_PLACEMENT_3D('',#845,#699,#700);
#568=AXIS2_PLACEMENT_3D('',#848,#702,#703);
#569=AXIS2_PLACEMENT_3D('',#849,#704,#705);
#570=AXIS2_PLACEMENT_3D('',#850,#706,#707);
#571=AXIS2_PLACEMENT_3D('',#856,#711,#712);
#572=AXIS2_PLACEMENT_3D('',#860,#715,#716);
#573=AXIS2_PLACEMENT_3D('',#864,#719,#720);
#574=AXIS2_PLACEMENT_3D('',#866,#722,#723);
#575=AXIS2_PLACEMENT_3D('',#867,#724,#725);
#576=DIRECTION('axis',(0.,0.,1.));
#577=DIRECTION('refdir',(1.,0.,0.));
#578=DIRECTION('center_axis',(0.,0.,1.));
#579=DIRECTION('ref_axis',(-0.707106781186546,0.707106781186549,0.));
#580=DIRECTION('center_axis',(0.,0.,-1.));
#581=DIRECTION('ref_axis',(-0.707106781186546,0.707106781186549,0.));
#582=DIRECTION('',(0.,0.,-1.));
#583=DIRECTION('center_axis',(0.,0.,1.));
#584=DIRECTION('ref_axis',(-0.707106781186546,0.707106781186549,0.));
#585=DIRECTION('',(0.,0.,1.));
#586=DIRECTION('center_axis',(0.,1.,0.));
#587=DIRECTION('ref_axis',(-1.,0.,0.));
#588=DIRECTION('',(-1.,0.,0.));
#589=DIRECTION('',(0.,0.,1.));
#590=DIRECTION('',(-1.,0.,0.));
#591=DIRECTION('',(0.,0.,1.));
#592=DIRECTION('',(-1.,0.,0.));
#593=DIRECTION('',(0.,0.,-1.));
#594=DIRECTION('',(1.,0.,0.));
#595=DIRECTION('center_axis',(0.,0.,1.));
#596=DIRECTION('ref_axis',(1.,0.,0.));
#597=DIRECTION('',(0.,-1.,0.));
#598=DIRECTION('center_axis',(0.,0.,-1.));
#599=DIRECTION('ref_axis',(-0.707106781186547,-0.707106781186548,0.));
#600=DIRECTION('',(1.,0.,0.));
#601=DIRECTION('center_axis',(0.,0.,-1.));
#602=DIRECTION('ref_axis',(0.707106781186548,-0.707106781186547,0.));
#603=DIRECTION('',(0.,1.,0.));
#604=DIRECTION('center_axis',(0.,0.,-1.));
#605=DIRECTION('ref_axis',(0.70710678118655,0.707106781186545,0.));
#606=DIRECTION('',(0.,-1.,0.));
#607=DIRECTION('',(-1.,0.,0.));
#608=DIRECTION('',(0.,1.,0.));
#609=DIRECTION('',(1.,0.,0.));
#610=DIRECTION('center_axis',(0.,0.,1.));
#611=DIRECTION('ref_axis',(0.70710678118655,0.707106781186545,0.));
#612=DIRECTION('',(0.,0.,-1.));
#613=DIRECTION('center_axis',(0.,0.,1.));
#614=DIRECTION('ref_axis',(0.70710678118655,0.707106781186545,0.));
#615=DIRECTION('center_axis',(1.,0.,0.));
#616=DIRECTION('ref_axis',(0.,1.,0.));
#617=DIRECTION('',(0.,0.,1.));
#618=DIRECTION('',(0.,1.,0.));
#619=DIRECTION('center_axis',(0.,0.,1.));
#620=DIRECTION('ref_axis',(0.707106781186548,-0.707106781186547,0.));
#621=DIRECTION('',(0.,0.,-1.));
#622=DIRECTION('center_axis',(0.,0.,1.));
#623=DIRECTION('ref_axis',(0.707106781186548,-0.707106781186547,0.));
#624=DIRECTION('center_axis',(0.,-1.,0.));
#625=DIRECTION('ref_axis',(1.,0.,0.));
#626=DIRECTION('',(0.,0.,1.));
#627=DIRECTION('',(1.,0.,0.));
#628=DIRECTION('center_axis',(0.,0.,1.));
#629=DIRECTION('ref_axis',(-0.707106781186547,-0.707106781186548,0.));
#630=DIRECTION('',(0.,0.,-1.));
#631=DIRECTION('center_axis',(0.,0.,1.));
#632=DIRECTION('ref_axis',(-0.707106781186547,-0.707106781186548,0.));
#633=DIRECTION('center_axis',(-1.,0.,0.));
#634=DIRECTION('ref_axis',(0.,-1.,0.));
#635=DIRECTION('',(0.,-1.,0.));
#636=DIRECTION('center_axis',(1.,0.,0.));
#637=DIRECTION('ref_axis',(0.,0.,1.));
#638=DIRECTION('',(0.,-1.,0.));
#639=DIRECTION('',(0.,0.,-1.));
#640=DIRECTION('',(0.,-1.,0.));
#641=DIRECTION('center_axis',(0.,0.,-1.));
#642=DIRECTION('ref_axis',(1.,0.,0.));
#643=DIRECTION('',(0.,-1.,0.));
#644=DIRECTION('',(-1.,0.,0.));
#645=DIRECTION('center_axis',(-1.,0.,0.));
#646=DIRECTION('ref_axis',(0.,0.,-1.));
#647=DIRECTION('',(0.,-1.,0.));
#648=DIRECTION('',(0.,0.,1.));
#649=DIRECTION('center_axis',(0.,0.,1.));
#650=DIRECTION('ref_axis',(-1.,0.,0.));
#651=DIRECTION('',(1.,0.,0.));
#652=DIRECTION('center_axis',(0.,0.,-1.));
#653=DIRECTION('ref_axis',(-1.,0.,0.));
#654=DIRECTION('center_axis',(0.,0.,-1.));
#655=DIRECTION('ref_axis',(-1.,0.,0.));
#656=DIRECTION('',(0.,0.,-1.));
#657=DIRECTION('center_axis',(0.,0.,-1.));
#658=DIRECTION('ref_axis',(-1.,0.,0.));
#659=DIRECTION('center_axis',(0.,0.,1.));
#660=DIRECTION('ref_axis',(-1.,0.,0.));
#661=DIRECTION('center_axis',(0.,0.,-1.));
#662=DIRECTION('ref_axis',(-1.,0.,0.));
#663=DIRECTION('center_axis',(0.,0.,-1.));
#664=DIRECTION('ref_axis',(-1.,0.,0.));
#665=DIRECTION('',(0.,0.,-1.));
#666=DIRECTION('center_axis',(0.,0.,-1.));
#667=DIRECTION('ref_axis',(-1.,0.,0.));
#668=DIRECTION('center_axis',(0.,0.,1.));
#669=DIRECTION('ref_axis',(-1.,0.,0.));
#670=DIRECTION('center_axis',(0.,0.,-1.));
#671=DIRECTION('ref_axis',(-1.,0.,0.));
#672=DIRECTION('center_axis',(0.,0.,-1.));
#673=DIRECTION('ref_axis',(-1.,0.,0.));
#674=DIRECTION('',(0.,0.,-1.));
#675=DIRECTION('center_axis',(0.,0.,-1.));
#676=DIRECTION('ref_axis',(-1.,0.,0.));
#677=DIRECTION('center_axis',(0.,0.,1.));
#678=DIRECTION('ref_axis',(-1.,0.,0.));
#679=DIRECTION('center_axis',(0.,0.,1.));
#680=DIRECTION('ref_axis',(-1.,0.,0.));
#681=DIRECTION('center_axis',(0.,0.,1.));
#682=DIRECTION('ref_axis',(-1.,0.,0.));
#683=DIRECTION('',(0.,0.,-1.));
#684=DIRECTION('center_axis',(0.,0.,-1.));
#685=DIRECTION('ref_axis',(-1.,0.,0.));
#686=DIRECTION('center_axis',(0.,0.,1.));
#687=DIRECTION('ref_axis',(-1.,0.,0.));
#688=DIRECTION('center_axis',(0.,0.,1.));
#689=DIRECTION('ref_axis',(-1.,0.,0.));
#690=DIRECTION('center_axis',(0.,0.,1.));
#691=DIRECTION('ref_axis',(-1.,0.,0.));
#692=DIRECTION('',(0.,0.,-1.));
#693=DIRECTION('center_axis',(0.,0.,-1.));
#694=DIRECTION('ref_axis',(-1.,0.,0.));
#695=DIRECTION('center_axis',(0.,0.,1.));
#696=DIRECTION('ref_axis',(-1.,0.,0.));
#697=DIRECTION('center_axis',(0.,0.,1.));
#698=DIRECTION('ref_axis',(-1.,0.,0.));
#699=DIRECTION('center_axis',(0.,0.,1.));
#700=DIRECTION('ref_axis',(-1.,0.,0.));
#701=DIRECTION('',(0.,0.,-1.));
#702=DIRECTION('center_axis',(0.,0.,-1.));
#703=DIRECTION('ref_axis',(-1.,0.,0.));
#704=DIRECTION('center_axis',(0.,0.,1.));
#705=DIRECTION('ref_axis',(-1.,0.,0.));
#706=DIRECTION('center_axis',(0.,-1.,0.));
#707=DIRECTION('ref_axis',(1.,0.,0.));
#708=DIRECTION('',(-1.,0.,0.));
#709=DIRECTION('',(0.,0.,1.));
#710=DIRECTION('',(0.,0.,1.));
#711=DIRECTION('center_axis',(1.,0.,0.));
#712=DIRECTION('ref_axis',(0.,1.,0.));
#713=DIRECTION('',(0.,-1.,0.));
#714=DIRECTION('',(0.,0.,1.));
#715=DIRECTION('center_axis',(0.,1.,0.));
#716=DIRECTION('ref_axis',(-1.,0.,0.));
#717=DIRECTION('',(1.,0.,0.));
#718=DIRECTION('',(0.,0.,1.));
#719=DIRECTION('center_axis',(-1.,0.,0.));
#720=DIRECTION('ref_axis',(0.,-1.,0.));
#721=DIRECTION('',(0.,1.,0.));
#722=DIRECTION('center_axis',(0.,0.,1.));
#723=DIRECTION('ref_axis',(1.,0.,0.));
#724=DIRECTION('center_axis',(0.,0.,1.));
#725=DIRECTION('ref_axis',(1.,0.,0.));
#726=CARTESIAN_POINT('',(0.,0.,0.));
#727=CARTESIAN_POINT('Origin',(7.72028492532345,73.1876865575144,0.));
#728=CARTESIAN_POINT('',(4.72028492532345,73.1876865575144,15.));
#729=CARTESIAN_POINT('',(7.72028492532346,76.1876865575145,15.));
#730=CARTESIAN_POINT('Origin',(7.72028492532345,73.1876865575144,15.));
#731=CARTESIAN_POINT('',(7.72028492532346,76.1876865575145,0.));
#732=CARTESIAN_POINT('',(7.72028492532345,76.1876865575145,0.));
#733=CARTESIAN_POINT('',(4.72028492532345,73.1876865575144,0.));
#734=CARTESIAN_POINT('Origin',(7.72028492532345,73.1876865575144,0.));
#735=CARTESIAN_POINT('',(4.72028492532345,73.1876865575144,0.));
#736=CARTESIAN_POINT('Origin',(107.520284925323,76.1876865575145,0.));
#737=CARTESIAN_POINT('',(104.520284925323,76.1876865575145,15.));
#738=CARTESIAN_POINT('',(107.520284925323,76.1876865575145,15.));
#739=CARTESIAN_POINT('',(104.520284925323,76.1876865575145,0.));
#740=CARTESIAN_POINT('',(104.520284925323,76.1876865575145,0.));
#741=CARTESIAN_POINT('',(107.520284925323,76.1876865575145,0.));
#742=CARTESIAN_POINT('',(35.1202849253235,76.1876865575145,6.));
#743=CARTESIAN_POINT('',(35.1202849253235,76.1876865575145,11.0000000745058));
#744=CARTESIAN_POINT('',(35.1202849253235,76.1876865575145,3.));
#745=CARTESIAN_POINT('',(20.1202849253235,76.1876865575145,11.0000000745058));
#746=CARTESIAN_POINT('',(71.3202849253234,76.1876865575145,11.0000000745058));
#747=CARTESIAN_POINT('',(20.1202849253235,76.1876865575145,6.));
#748=CARTESIAN_POINT('',(20.1202849253234,76.1876865575145,5.5000000372529));
#749=CARTESIAN_POINT('',(63.8202849253235,76.1876865575145,6.));
#750=CARTESIAN_POINT('Origin',(56.1202849253235,32.2876865575145,15.));
#751=CARTESIAN_POINT('',(4.72028492532345,-8.61231344248554,15.));
#752=CARTESIAN_POINT('',(4.72028492532345,-11.6123134424855,15.));
#753=CARTESIAN_POINT('',(7.72028492532345,-11.6123134424855,15.));
#754=CARTESIAN_POINT('Origin',(7.72028492532345,-8.61231344248554,15.));
#755=CARTESIAN_POINT('',(104.520284925323,-11.6123134424855,15.));
#756=CARTESIAN_POINT('',(4.72028492532345,-11.6123134424855,15.));
#757=CARTESIAN_POINT('',(107.520284925323,-8.61231344248554,15.));
#758=CARTESIAN_POINT('Origin',(104.520284925323,-8.61231344248554,15.));
#759=CARTESIAN_POINT('',(107.520284925323,73.1876865575145,15.));
#760=CARTESIAN_POINT('',(107.520284925323,-11.6123134424855,15.));
#761=CARTESIAN_POINT('Origin',(104.520284925323,73.1876865575145,15.));
#762=CARTESIAN_POINT('',(105.520284925323,74.1876865575145,15.));
#763=CARTESIAN_POINT('',(105.520284925323,-9.61231344248554,15.));
#764=CARTESIAN_POINT('',(105.520284925323,76.1876865575145,15.));
#765=CARTESIAN_POINT('',(6.72028492532345,-9.61231344248554,15.));
#766=CARTESIAN_POINT('',(107.520284925323,-9.61231344248554,15.));
#767=CARTESIAN_POINT('',(6.72028492532345,74.1876865575145,15.));
#768=CARTESIAN_POINT('',(6.72028492532345,76.1876865575145,15.));
#769=CARTESIAN_POINT('',(107.394954531852,74.1876865575145,15.));
#770=CARTESIAN_POINT('Origin',(104.520284925323,73.1876865575145,0.));
#771=CARTESIAN_POINT('',(107.520284925323,73.1876865575145,0.));
#772=CARTESIAN_POINT('',(107.520284925323,73.1876865575145,0.));
#773=CARTESIAN_POINT('Origin',(104.520284925323,73.1876865575145,0.));
#774=CARTESIAN_POINT('Origin',(107.520284925323,-11.6123134424855,0.));
#775=CARTESIAN_POINT('',(107.520284925323,-8.61231344248554,0.));
#776=CARTESIAN_POINT('',(107.520284925323,-8.61231344248554,0.));
#777=CARTESIAN_POINT('',(107.520284925323,-11.6123134424855,0.));
#778=CARTESIAN_POINT('Origin',(104.520284925323,-8.61231344248554,0.));
#779=CARTESIAN_POINT('',(104.520284925323,-11.6123134424855,0.));
#780=CARTESIAN_POINT('',(104.520284925323,-11.6123134424855,0.));
#781=CARTESIAN_POINT('Origin',(104.520284925323,-8.61231344248554,0.));
#782=CARTESIAN_POINT('Origin',(4.72028492532345,-11.6123134424855,0.));
#783=CARTESIAN_POINT('',(7.72028492532345,-11.6123134424855,0.));
#784=CARTESIAN_POINT('',(7.72028492532345,-11.6123134424855,0.));
#785=CARTESIAN_POINT('',(4.72028492532345,-11.6123134424855,0.));
#786=CARTESIAN_POINT('Origin',(7.72028492532345,-8.61231344248554,0.));
#787=CARTESIAN_POINT('',(4.72028492532345,-8.61231344248553,0.));
#788=CARTESIAN_POINT('',(4.72028492532345,-8.61231344248554,0.));
#789=CARTESIAN_POINT('Origin',(7.72028492532345,-8.61231344248554,0.));
#790=CARTESIAN_POINT('Origin',(4.72028492532345,76.1876865575145,0.));
#791=CARTESIAN_POINT('',(4.72028492532345,76.1876865575145,0.));
#792=CARTESIAN_POINT('Origin',(35.1202849253235,76.1876865575145,6.));
#793=CARTESIAN_POINT('',(35.1202849253235,74.1876865575145,6.));
#794=CARTESIAN_POINT('',(35.1202849253235,76.1876865575145,6.));
#795=CARTESIAN_POINT('',(35.1202849253235,74.1876865575145,11.0000000745058));
#796=CARTESIAN_POINT('',(35.1202849253235,74.1876865575145,4.5));
#797=CARTESIAN_POINT('',(35.1202849253235,76.1876865575145,11.0000000745058));
#798=CARTESIAN_POINT('Origin',(20.1202849253235,76.1876865575145,6.));
#799=CARTESIAN_POINT('',(20.1202849253235,74.1876865575145,6.));
#800=CARTESIAN_POINT('',(20.1202849253235,76.1876865575145,6.));
#801=CARTESIAN_POINT('',(13.4202849253235,74.1876865575145,6.));
#802=CARTESIAN_POINT('Origin',(20.1202849253235,76.1876865575145,11.0000000745058));
#803=CARTESIAN_POINT('',(20.1202849253235,74.1876865575145,11.0000000745058));
#804=CARTESIAN_POINT('',(20.1202849253235,76.1876865575145,11.0000000745058));
#805=CARTESIAN_POINT('',(20.1202849253235,74.1876865575145,7.0000000372529));
#806=CARTESIAN_POINT('Origin',(35.1202849253235,76.1876865575145,11.0000000745058));
#807=CARTESIAN_POINT('',(20.9202849253235,74.1876865575145,11.0000000745058));
#808=CARTESIAN_POINT('Origin',(87.6202849253235,0.287686557514456,6.));
#809=CARTESIAN_POINT('',(90.3202849253235,0.287686557514456,6.));
#810=CARTESIAN_POINT('Origin',(87.6202849253235,0.287686557514456,6.));
#811=CARTESIAN_POINT('',(90.3202849253235,0.287686557514456,5.));
#812=CARTESIAN_POINT('',(90.3202849253235,0.287686557514456,6.));
#813=CARTESIAN_POINT('Origin',(87.6202849253235,0.287686557514456,5.));
#814=CARTESIAN_POINT('Origin',(87.6202849253235,0.287686557514456,5.));
#815=CARTESIAN_POINT('Origin',(25.6202849253234,8.78768655751446,6.));
#816=CARTESIAN_POINT('',(28.3202849253234,8.78768655751446,6.));
#817=CARTESIAN_POINT('Origin',(25.6202849253234,8.78768655751446,6.));
#818=CARTESIAN_POINT('',(28.3202849253234,8.78768655751446,5.));
#819=CARTESIAN_POINT('',(28.3202849253234,8.78768655751446,6.));
#820=CARTESIAN_POINT('Origin',(25.6202849253234,8.78768655751446,5.));
#821=CARTESIAN_POINT('Origin',(25.6202849253234,8.78768655751446,5.));
#822=CARTESIAN_POINT('Origin',(82.1202849253235,67.7876865575145,6.));
#823=CARTESIAN_POINT('',(84.8202849253235,67.7876865575145,6.));
#824=CARTESIAN_POINT('Origin',(82.1202849253235,67.7876865575145,6.));
#825=CARTESIAN_POINT('',(84.8202849253235,67.7876865575145,5.));
#826=CARTESIAN_POINT('',(84.8202849253235,67.7876865575145,6.));
#827=CARTESIAN_POINT('Origin',(82.1202849253235,67.7876865575145,5.));
#828=CARTESIAN_POINT('Origin',(82.1202849253235,67.7876865575145,5.));
#829=CARTESIAN_POINT('Origin',(82.1202849253235,67.7876865575145,3.));
#830=CARTESIAN_POINT('',(85.6202849253235,67.7876865575145,6.));
#831=CARTESIAN_POINT('Origin',(82.1202849253235,67.7876865575145,6.));
#832=CARTESIAN_POINT('',(85.6202849253235,67.7876865575145,3.));
#833=CARTESIAN_POINT('',(85.6202849253235,67.7876865575145,3.));
#834=CARTESIAN_POINT('Origin',(82.1202849253235,67.7876865575145,3.));
#835=CARTESIAN_POINT('Origin',(82.1202849253235,67.7876865575145,6.));
#836=CARTESIAN_POINT('Origin',(87.6202849253235,0.287686557514456,3.));
#837=CARTESIAN_POINT('',(91.1202849253235,0.287686557514456,6.));
#838=CARTESIAN_POINT('Origin',(87.6202849253235,0.287686557514456,6.));
#839=CARTESIAN_POINT('',(91.1202849253235,0.287686557514456,3.));
#840=CARTESIAN_POINT('',(91.1202849253235,0.287686557514456,3.));
#841=CARTESIAN_POINT('Origin',(87.6202849253235,0.287686557514456,3.));
#842=CARTESIAN_POINT('Origin',(87.6202849253235,0.287686557514456,6.));
#843=CARTESIAN_POINT('Origin',(25.6202849253234,8.78768655751446,3.));
#844=CARTESIAN_POINT('',(29.1202849253234,8.78768655751446,6.));
#845=CARTESIAN_POINT('Origin',(25.6202849253234,8.78768655751446,6.));
#846=CARTESIAN_POINT('',(29.1202849253234,8.78768655751446,3.));
#847=CARTESIAN_POINT('',(29.1202849253234,8.78768655751446,3.));
#848=CARTESIAN_POINT('Origin',(25.6202849253234,8.78768655751446,3.));
#849=CARTESIAN_POINT('Origin',(25.6202849253234,8.78768655751446,6.));
#850=CARTESIAN_POINT('Origin',(6.72028492532345,74.1876865575145,3.));
#851=CARTESIAN_POINT('',(105.520284925323,74.1876865575145,3.));
#852=CARTESIAN_POINT('',(6.72028492532345,74.1876865575145,3.));
#853=CARTESIAN_POINT('',(31.4202849253235,74.1876865575145,3.));
#854=CARTESIAN_POINT('',(105.520284925323,74.1876865575145,3.));
#855=CARTESIAN_POINT('',(6.72028492532345,74.1876865575145,3.));
#856=CARTESIAN_POINT('Origin',(6.72028492532345,-9.61231344248555,3.));
#857=CARTESIAN_POINT('',(6.72028492532345,-9.61231344248554,3.));
#858=CARTESIAN_POINT('',(6.72028492532346,11.3376865575145,3.));
#859=CARTESIAN_POINT('',(6.72028492532345,-9.61231344248554,3.));
#860=CARTESIAN_POINT('Origin',(105.520284925323,-9.61231344248554,3.));
#861=CARTESIAN_POINT('',(105.520284925323,-9.61231344248555,3.));
#862=CARTESIAN_POINT('',(80.8202849253235,-9.61231344248554,3.));
#863=CARTESIAN_POINT('',(105.520284925323,-9.61231344248555,3.));
#864=CARTESIAN_POINT('Origin',(105.520284925323,74.1876865575145,3.));
#865=CARTESIAN_POINT('',(105.520284925323,53.2376865575145,3.));
#866=CARTESIAN_POINT('Origin',(56.1202849253235,32.2876865575145,3.));
#867=CARTESIAN_POINT('Origin',(56.1202849253235,32.2876865575145,0.));
#868=UNCERTAINTY_MEASURE_WITH_UNIT(LENGTH_MEASURE(0.01),#872,
'DISTANCE_ACCURACY_VALUE',
'Maximum model space distance between geometric entities at asserted c
onnectivities');
#869=UNCERTAINTY_MEASURE_WITH_UNIT(LENGTH_MEASURE(0.01),#872,
'DISTANCE_ACCURACY_VALUE',
'Maximum model space distance between geometric entities at asserted c
onnectivities');
#870=(
GEOMETRIC_REPRESENTATION_CONTEXT(3)
GLOBAL_UNCERTAINTY_ASSIGNED_CONTEXT((#868))
GLOBAL_UNIT_ASSIGNED_CONTEXT((#872,#874,#875))
REPRESENTATION_CONTEXT('','3D')
);
#871=(
GEOMETRIC_REPRESENTATION_CONTEXT(3)
GLOBAL_UNCERTAINTY_ASSIGNED_CONTEXT((#869))
GLOBAL_UNIT_ASSIGNED_CONTEXT((#872,#874,#875))
REPRESENTATION_CONTEXT('','3D')
);
#872=(
LENGTH_UNIT()
NAMED_UNIT(*)
SI_UNIT(.MILLI.,.METRE.)
);
#873=(
LENGTH_UNIT()
NAMED_UNIT(*)
SI_UNIT($,.METRE.)
);
#874=(
NAMED_UNIT(*)
PLANE_ANGLE_UNIT()
SI_UNIT($,.RADIAN.)
);
#875=(
NAMED_UNIT(*)
SI_UNIT($,.STERADIAN.)
SOLID_ANGLE_UNIT()
);
#876=SHAPE_DEFINITION_REPRESENTATION(#877,#878);
#877=PRODUCT_DEFINITION_SHAPE('',$,#880);
#878=SHAPE_REPRESENTATION('',(#524),#870);
#879=PRODUCT_DEFINITION_CONTEXT('part definition',#884,'design');
#880=PRODUCT_DEFINITION('2026-06-21-11-21-50-434','(Unsaved)',#881,#879);
#881=PRODUCT_DEFINITION_FORMATION('',$,#886);
#882=PRODUCT_RELATED_PRODUCT_CATEGORY('(Unsaved)','(Unsaved)',(#886));
#883=APPLICATION_PROTOCOL_DEFINITION('international standard',
'automotive_design',2009,#884);
#884=APPLICATION_CONTEXT(
'Core Data for Automotive Mechanical Design Process');
#885=PRODUCT_CONTEXT('part definition',#884,'mechanical');
#886=PRODUCT('2026-06-21-11-21-50-434','(Unsaved)',$,(#885));
#887=PRESENTATION_STYLE_ASSIGNMENT((#888));
#888=SURFACE_STYLE_USAGE(.BOTH.,#889);
#889=SURFACE_SIDE_STYLE('',(#890));
#890=SURFACE_STYLE_FILL_AREA(#891);
#891=FILL_AREA_STYLE('Steel - Satin',(#892));
#892=FILL_AREA_STYLE_COLOUR('Steel - Satin',#893);
#893=COLOUR_RGB('Steel - Satin',0.627450980392157,0.627450980392157,0.627450980392157);
ENDSEC;
END-ISO-10303-21;
